<mxfile host="app.diagrams.net" modified="2023-04-02T07:06:18.810Z" agent="5.0 (Windows NT 10.0; Win64; x64) AppleWebKit/537.36 (KHTML, like Gecko) Chrome/111.0.0.0 Safari/537.36" etag="udaRtqNReFmRHMj8-dJg" version="21.0.2" type="github">
  <diagram name="第 1 页" id="s9x3poT3G93Vtk8UZDwj">
    <mxGraphModel dx="331" dy="935" grid="1" gridSize="10" guides="1" tooltips="1" connect="1" arrows="1" fold="1" page="1" pageScale="1" pageWidth="827" pageHeight="1169" math="0" shadow="0">
      <root>
        <mxCell id="0" />
        <mxCell id="1" parent="0" />
        <mxCell id="ckXVGLJdIZm9-5gjYWTS-27" value="" style="shape=image;verticalLabelPosition=bottom;labelBackgroundColor=default;verticalAlign=top;aspect=fixed;imageAspect=0;image=data:image/png,iVBORw0KGgoAAAANSUhEUgAABjMAAAGCCAYAAAHS8gGbAAAAAXNSR0IArs4c6QAAAARnQU1BAACxjwv8YQUAAAAJcEhZcwAAFxEAABcRAcom8z8AAM4KSURBVHhe7P15sFX1ne//54/oOVL9q+TWr7qu329V35uu7626qepb1fn9bl0xiUYcQU2ccCAKHs7BAWdhbwREBZXB4IDRRExMAp3utJ3k17ETp6RtA912rrGvNmIHISoeHMGJozIJAuu3Xmt/3od1Pnz2PntYe34+qt611zzttff6vNdnDZ8BAAAtYmscu10U85z7LFfkPkspZxigJfg/Dn/nDe3MC+JId/fbTW8c6pdmw6V/eH8eh4bdHsekONLTutN9ivp9ttAI1M//FceYOPTj0M6oZtsp1eyzYRT+Duq3p3fuP3OfRv2mFxpH/DD149APJj0tm85fxKFm+0GVOtoBAAB0gkPHT4wsXCcA8s4vL4ksXCcAwo8DKIIfB1AEPw6gCH4cQBH8OICUnoH81N6B3Bo18+MAUnr788tdY/DH0TMtN841At2jdyA/5BoToR+HxEeXp10j0PniH8ZBRadiPw6ga4R+GMKPA10t/mEMusaDjPbjKPajAtpeb//MOa4RgPlc3zWfd40AKjVascpQvELXKffHAXQdfhwt4uib73rqiLmLN/lx5NzFq4rFX7219b+40VEHlf44evpz/tNJkIWoQhMW38O/WZ1V+uMQfiAZe/fjbW6XL58btS4eXTtlk5tN2R5/YUpdlumJdeuidIg1r3vrrWjvvn0j+vtRyf3fvQO5XenkOvTj4PRvA42dtyT5wiuhcdzodeFmU7Y/bPnOgZ0n3rmyCk0vtMNbfLRzZzJ/Ne/cs+eg/opyfxw2v7TQj6MsffP13KqmW7789cjCdWovybdbgXoXp1ZtuMLN6YC1r72V7KzFuFHrIv0EkHScMOum6E9OPS/65e+eiW7/6UPBYSzcpIJCPwoz2o+j1Lg6CrnGpmnrH8e6Nze73etgpXZG39j5S77gJlmTVipO1VupHduM9uMwY/ryh7vGYfGPQ4/7bKq2/nEYt59VJcsilptk2TZu/bFrGslNriWV86Mw5f445NC+mV90jS2j7X8cz736mtulqqMvuxFRrofX9GV6M5CfQzy7adNwczrnKBZWrNI6JBOsQCU/DhOaT27jx1E9YrQiY1v/OKpJxtOyKk6luUlX5R//MHX4S0j/sKoNTSe0wys+2L59+Mch+/bvDw5n06lGNT8Ok55veocWfd4wuC1a8vr2Ed3e2bMvaf7t0O6k/YNP9w33l+te7aIfh1vnqhT7YblJV+WZjYvcVA527r0rXVNxbjKZsqS6lnCTapr0Dq2Q32z9JLr1te3Rr97/JOn22id7o7ve3JH0Sw9rPwj1f+bjPSP6hdYt/lEOX4Lftj+Ot7d+mGyILNWSfyixLkb/gqN5a+j30c7d78X/6OtHhJt8V/N/rFmGm0VQ2/44zOs7drvdayTtkOXslObmv3+kpg3gJlNUqWVRcSpk1ZrzMi/2NVJWxapmaesfR605R5qbZM3c5A5SyQ9VsjrFG/q3rDTcpCpW7Y9Dp3b5cdTI7Uc104/skksuiS6//PKov7+/6g3xzMb5booHq/TH4SZZNatE8xNssU+z/ZNPoudffz1p9odvxo+jVbTtj2PH3sKZiVqdfsd90cDAQHTaaadF48ePr3ojlMo5pJIfR5bFKX9nf2toaLj5yRdfTM5Y6UyVpIezsB9HNf/kZf04WuRSkZC2/HFkWZyaPXt2NG/evOiqq66K5s6dW/VGcJOrWTvVmI/2gyn14zhsYOYZrrFlZVG0bKijFi8be9mPfhoVixl/84vh0JdnzXN/9siIWPrIk0lxSkUpRT5ffRn3za0Pu127dm6SbUlX3KZ/MKEfR2//rBWuEfXyzW9+c9PJJ5+c7NgXX3xxdN1110WLFi1K4tZbb41uu+226JZbbokuuuiiZJiZM2dG06dPjy677LLo0ksvTULN6qdPN9mK6Z9+x563RsSefR8HYzRukh0j9ONAA4wbNy469thjo69//evR1KlTo8WLF0c333xztGDBguiuu+6KFi5cmPxgrr322ujKK69Mfgz6IahZ3fRDufrqq5NE/IorruDLqwN+HE3Q19eX7Oja+ZUnXH/99UnuoKOFfiT6gVg37fgK+2Eot9AP5Zprrkl+IPww6qeFfhz20n951n2K7jq0d52nl/G1OKzdThgcEYeGt+42HbVb2DzE+v+5+6w/FZl0ZLj99tujO+64I2levnx5dM899ySxdOnS6M4770x+OHPmzEmODjo9a8Up/Uj0o9GPpJbiFEbXgj8Ofzn0ov/Qbbn6cdgl8xpPoR+Hb4z7lF/FoeF2x5Gej9obI/5xLFDERaiVivjHsDL+UaxcsWLFyvvuu2/1smXLVt97771JxD+O1XE+MhgfMZKIjxKD06ZNG9QPQ6Efipss6qCFfhxAa+HHARTRdvUEAAAAVStV3NEZHvX3z9JsjSN05mY0Gs/oLFFaJQ9T0JkkoG7udJ/Gfggm9MPwu+n8vbr5tKP7Pzr9MGyntnoFSZ8y9fnTEJuG/+MCMuPveOPdp7qnfwTp4e6Jw7qlfxjpYdIVaqoD0Gf6hyE6739cHANxqH96/HSzxrejzV/EoWlMT9oAAAA6y5hTzjmcugzAox+D1X7zwwAcfhhAAD8MIIAfBhDADwMI4IcBpNhTREI/jGqeYQV0BHtaIkcMIIAfBhBQ6ofRCi+yBJpitCPG5/qu+bxrBLrHaD8MAEX0DOSnukagQ2T0mH8eAo2OUc4/PUUpdJXegdwa11gSPwx0jUpqriv9YVArXidHzF28KRRHzl28KhRHzFtM2bYCle64HDFawDE33+ley1I+NyrKUE2FHD+MJtNRwe3rZavlBfnl2L13q5tT+dyomdIO6b+UcvfevQd1KxU9/fkH3eRGlT6qhH4YPQO5UR93Q5EqI26/KtvGd9+v64YPveVVX3Yp9jZXDZdhDJX6Yfxxy5bkU2941efeffuCP5pkpcoUz3PQNZY8Ymj5XGPL0jLbm1395W95rViEcrMZQTtCMfV8k6u+UD/e/fCjZL6Dm99J4j9PvDD6NP5B7Pjkk6SfP7ybVMU0brEfRjl6BvJPu8am0DK35Q+jVBGq2I4YelXylSt/ltlKFytCrX3tLdd0MDdqxyn3h1Hs9G+zjypt+8Mwtb4X3E2mZqO9KD9k1+53XdMB7fQu8FLK/WGY3v7c466xJbT1D+PI6xevcvtTVfSv1Kgox7rND2T6BegL9XOGSpNvN6mKLwGp9IdRjMbNbfy4LuFmEaT5tu0Pw+1PVcmyCGWqOWqkuclkloTrC/V3dD/5/u369cm8iyXfY/ryh7vFqojmXe0PQ8veMy03Ts0a13bkO97YnnxK+lPxwaf7hpv37Y+iPfv3Rw+9/0n0H9s/Tbo98/GeEcMrkpmlaL6usX1/GLUWoUJqOY37+JoLxrnJHEQbfDT1KELpC6013KSaRstgO7J27ld37R2xcxtrv+7Vwqd+GNv27o9uGNwW/Sr+gVj/dLhZDGv7H0Y5dReldsbQj2pfHG7yVSlM5WBajlkP/tK1ha15fWm0c/d7SXywff1wdEq+UQv7gdYj3CyC1L8tjxhSzZmpYsbOX5LUJVSj1iJUyAtvfK+tfxTamWopSqX/vZuhrX8Ybh8KquSHUUsRKi3LH4ibZE30hdYablIV07jV/DCa/YMwWua2/GHk/u4f3C4UVu4PY28c06dPj/r7+6OLL744uuiii6reCIUp1q7WIpTtXPpC04n0xnffHU6239+2Lfl8a2go+fz9xo3JZ3p4RTLBKlT6w2iVH4Rpyx9Glon3TTfdFE2cODE6+eSTo3HjxlW9AaJop5viwUbLMdKe2biw5i/hsIGZZ+jT/2Eo9MPQGSlJd9cPQ/3S3RSaTm9//qF4x12l5nKV+8NotR+EacsfRvKtZkA/sBtuuCG6+uqro1wuV/XKt1oRqhH0Qyl1W+poP4x4/CHX2JK0zBafHT+x9d/19/Wl340u+9FPgzHjb34xIvRvZM1zf/bIiLj+5w8nP4ZrrrkmuuKKK6Irr7yyqhvzS52mrVS7n4VK/v1dRWCxH4aOPq4R9XDsscdGJ5xwQrRw4cJo0qRJ0S233BItXrw4mj9/fvStb30rWrJkSTRv3rzo0ksvja677jrt+EnzZZddFk2bNi05SlxyySVJXqEfh5tsxXbseS3aseet4diz7+OiUcrqDTPa+kfhK/bDQB0dffTR0Ve/+tXouOOOi77xjW9Ec+fOTX4IN998c/LjuP3225MfylVXXZX8ILTj60ehI8O111473K4fx4wZnbVDtgp+GE0wMDAQ5fP5aPbs2dGNN96Y7Py33nprtHTp0uSIoR+IFZP0Q9BR4fLLL09+GDoDpU+1u6NI1fUXKK5Ffhjpl/bbMqyOQ+8WlxfisO46YfGncegl/HrnuNH7xUXDbS80JjSd9HvMF7jP9HyKvdA/ezoa3HXXXclR4dvf/nYS9957b3T33XcnoeYFCxYkRxH9KFRc0o/AilH6segHoR+I2t1kkbEW/GHIr+LQy/rth5F2Zxz2wzB6yb69dF/j6odh66Ifhf0YfDYfG7e+4qPCgvgHsSA+IqxULFq0aOU999yTxP333786/mGsfuCBB1bfd999q+NhV8+cOXN1/AMYvOiiiwbjH0PyGR89BlXE4kdRXy3ywwBaCz8MIKBn/MRx+kFYuM4AAAAAAAAZO8p9plktyrNxqBpQdJminaJQDYk12yMo1K5aFquZSZ/OSE/Humu49HRUq6J5qErTpPvrMz3NdD9Jz+PP4rB+qqlRv+R6bkf9tKyaX7rGSN01nKpP1axlEltH1Qpp+fx5i99N8/2LQuNn7onD+qnmSfx5A0Bb0J+dsT9H/Zmpelzsj9M85z5Ff4Tpg4boYGDN+vSnkx5Of8Kibv4ftKT7+6yf+POwfrpU2qr37c9aNL30eovNw4bXJQY2Pfu0dU/P26fp6DIF0afmY9ftaJpaDn/eAAAAAAAAAACgw6RvqkkH9xEAAA7CQQMAUDYOGgCAsnHQAACUjYMGAKBsHDQAAGXjoAEACNJbFZM3K6ZUctDo7Z85xzUCADpZ70BujWscodJMwz/oAAA6yGh/8pUeNBLuHfAAgA5RbkZQ1UHDibOXXa4RANCOKv0jr+WgIfHBaZVrBAC0i97+3OOusSKHjj/rZR0gQuEGKUvPtPwE1wgAaFVj+vJfco1NRyU5ALSwQ/tmftE1Vi2UYVi4QSoSH8QOd40AgFbQ2z9rhWusmQ4OtdRpFNMzkNvsGgEAzdA7kB9yjZmp10FD4uVd7xoBAI1Sz7qCeh40TBan0YC6O2Lu4k3vfrwtqrex85bU7QeN7taIiuVGHDSESnK0NP2R19vGd99v6wPG4y9McWtSP8+/eWe0as15X3CzbGn6k2x2HHLiOcmVUPEf7GCyUA2g+TbioCGtdKUXMOyYm+90f1n1M2HxPcmD3zo9aqGDkvtKWpLWzzUm9Cf5xLp1RcPs3rs3aX/344+Tduv31tBQ8qn2wffei/bv35807923L9q5Z0+0YfPmpL1U9Jw5tS7bzL7P0GmiSg8a/narRrHnYHUjbedQWAECdaTTUeve3Jz8cOupnbOLR9dO2bR771a3JsWdtHR58iejz2q0+gFD4vUbUamsH2roj9wPHTSefPHFaPWGDUn7H7dsiT7auTNpFvVLD6+Dhj7tYFMqtAxucWpSyR+75lnJQSNNV3FVe1MfV1cVaDsvX/76QZHVvoAiqjkdde69KysqTdvpqHJ85aalLfeFV3o6qpJtY/6w5Tttczqqk1RykPDVctBI+1zfNZ+v9ECg5a5l2TsBB40WcMS8xSseee4F9zfWeK2YiTyx7iK3dPVT7kHppXcejB5ZO3mqWzRUIcs/2qwOGr5KlrGb6zo4aDRZNRlHVq5c+bNo7PwlLVXKfif6zlGPPn/hykefn7za4rG1U6Lfv7IoGPf/9uYk1Lx6w4yyY+2b5dUj/eMf6nPOPgv6kTY/zgqe60/+gOv0OHLNtx4HjbR4+cu+v2Tk9miXOOtBt/gV0/gcNJqkmQeMVswufI+vuWDcMxsXuSUO++cNr1R1WqocrVbPofWMS7jDj7zQjzRUz2BhrG7CWHO6ItyoWXUaRu2lwv4otGw63ZMsWJ1pnvU+aKT1DOSn9gzMWpI0T8uNSzqmaL65jR/XJfbs3x/sXix++u6uYHc/atlWGpeDRoMdef3iVc+9+pr7WTZeWxwwKqzPEP1xZXEAWbf5gejhNX0H/Tk0m9bNNSb0Iw39kfuhg8Zv168fbvcrwvX57KZNyaeummpGRXglNM9i4QapCz3C3fYx1ymh+Yb+mJ/5eM9ws+jzN1s/ST5/uHln8vmr9z8Z7peOua9uSz7lulcPdP/g033DB5Jte0ceUDSt1z7ZO9ysT0kPY2HrUW64VU1ofTloNFAzs4tpD/xN9PbQh66ttPuffKppp64qPWDMevCXrql2rXw6Cq2p2EHjjje2J/uUtcsNg4WDwa2vbU8+Q3/u1qxh/2P7p8nnb4d2R/v2F7r7Bw257+0dyQFFBxj7FPUPRS1/8Bw0GiirA4aO/Gtfe8u1laeSeTcrE3nshSkrXt7yC7cU5bPSUK0qOVi12qmrbjLmlHMO1x9UKNwgqCNtZw4aTdL3vR+7v6DKZPEHGbI3jmYdMKo5HRVSzbZZ8/rSaNfud13b6DhgNJf+nBpZp2Hs9FRPf77qSuROwEGjCfTH/OEe/UVXpx4Hjek/+ElLXUmlm/qiqLxTaWn1OqDKMxsXttQ9HfqRhuoZ0rFrz54R9RkWdkOf1W1UG834o9A8G3HQ0L7kGpGi7cxBo4GyOkWVJS3TxIkTo9NOOy2aMGFC8jlp0qTonHPOSZrdojdMtVmHfuQWWWuF7MLW7bCBmWeoXT/S0B95OnSFVPqg8ep77yXr4x800n6/cWPSLXSw8aPnvEsbvl3qddDQtnWNKIGDRgP94HfPup9la7DTUV/96lejY489NvrKV74Sfe1rX4tOOOGE6Bvf+EZ0/PHHr3aL3jAvb6nulJ3p1ANGiH6krRBucYLi72NVcrDrzz/kOtVM86z1oNHTN/sLHCSqo+3MQaPO9Me8Y++Ba9+zoB2+0srwtNPvuC/K5XLRzJkzo0suuSS68soro2uuuSa67LLLoquuuqrhX34hu9hdWLgWoZsA3eKhzvRAwOTgMpBb5joVLflXc9A4rD9/LQ8dRNu6+OKLozPPPDM68cQTo3HjxkVqz+fzyemg8ePHR1OmTImuv/766Oabb47mzZsX3XTTTdH8+fOjRYsWRbfccks0YdZNSYzP3xjdvHBRtGDBguiKK66IJk+eHJ199tnR5ZdfnhwQZsyYkXTXQUDd9Hn11VcnoWYdJDSc2tWsbpde2vjTDdWejqqnVs0uukWpLKCagwbQtnSQOO6446JjjjkmOuWUU5K6hOOPPz45NTQwMJAcFHQQ0Oett96axJIlS5LPO++8M7r99tuTfjqgKEtQZqADzrXXXptkCzpQKNSuA4a6aRgdGNRNB4/p06cnByq160Ch6cyaNUsHjJa7oQ3wcdBAV9ABQlnAueeem2QTZ5xxRtI8derU6LrrrktK+nPnzo3uuOOOaOnSpdG3vvWt5FMHDIWalXHogHHjjTdGc+bMSUIHAx0ILFvQpw4CCssedBCxA4va9amMQv0VGt8tJtDyOGgM0/palPOcr93usxqvuc9J7rOYI+IYX2j8zHb3WS6th43b3ZQ5WPawcOHCJFvQgUCnm9Su5mXLliUHhrvuuiu6++67k+F1MNGfv/70dYBQs7rdcMMNSaT/9JVRWDahTELdlGEo21A3nYbSMAp1U2h4tbvFBNoCB41hdsBYEIcdNOzAkN4Wfj+xP3Q7CGj4gTjSl5T/qfvUMKGDhi5uUHdN61fqENNBw5pDy7LQfYqWW9L9i40bWh+bd+e49dZbx+m0kk4lqU5CBw0dKCyb0AFCnwp1+853vhPdc889yUHj/vvvTz51SkoHFH1quHvvvTc5yNhBQwcEhZqVRehgYQcMhQ4KF110URJ2mkoHDA0fZxst9YRboBwcNIbpD9rYH6n9ifp/tmPiSB80nnOfn40jvd3UPKXQ+JlVcejy7vRBw9/Gmm46y9EyaZqavr8s8rs41hcaD5q3+OMWO3hovjqopecNAAfjoAEAKBsHDQAAAAAAAAAAAABAOVSJbBXJlV7GmL4s0i7NHE25w6Vp+napaCXsfoO00SrN63mTWfpSWQBoO+kbpE6Mww4afxZH+s9Vzclj2WPPxmFPQdZBQ/0UdjC4Jw7rn56OP5ymM7vQmCyHDWfS/dUvfQBQvx8WGg9a1q1x/EWhMRkn3U/N1q5PXfMvWuZ0d918lr7X4Kg4NF1Jz9ukt0mpbWcHDXWzeQNA27A7c42faejPzb9bOH1nb/qmsVIZhKajm7dEw9ndv5K++cz+bP3+1l38fkbD3FloHGZ/0v4jMGx6OhikaTibvn/QkGLzDt3tnGbbRstTbN4A0PLSf8ZqtoOGvQMj3T/9h6wDQPrPXkIHjfR0Sh000n/QUu5BQ9LzsGW0z/TjMNLS07N1kUoOGj6bjh00tFw2H8tS0gcNAGhLOrVij3ewg8av4/hxHPYHp097xMTv4rDhQwcNnerRuBKajg2XPv3kHzQk3T/dXdSv2Dz801PiHzREw9tw1qx6E/356/O4OF6IQ/3SWUF63ia9TdKnpzQNbSNla5I+PWXzBgAAAAAAAAAAAAAAAIBR6BHo4TjrQTcIAAAFOkDwPg0AQFk4aAAAysZBAwBQNg4aAICycdAAAJSNgwYAoGwcNAAAZeOgAQAoGwcNAEDZOGgAAMrGQQMAUDYOGgCAspVz0Di0b+YXXSMAoFv0DuQjhWtNlJVp9M2395wDALpF1QeNWDzekGsEAHQ6+9Pv6c8tSDo45R40xD/gAAA6UO9Abo1rPEglBw0Z05c/3DUCADpNb/+sFa4xqNKDRm9//iHXCADoJHGGMck1FlXpQUM4TQUAHaanb/YXXGNJ1Rw0pGcgP9U1AgDaWt/83s/1XfN511ZStQeNcrIYAEAb6JmWG+caR1XtQUM4TQUAbc6/pHY0tRw0JD5wrHKNAIB20tufe9w1lq3Wg0a5p8EAAC0kLvEPusaK6OBQLNwgo+odyO1yjQCAVtcKf9ocOACgDbRUZTQPNgSA1tVqVy/1DOSfdo0AgFaS1QEjVJdh4QapSKsdyACg62X5x6yDQy1XT4Uc1jfjSNcIAGim+ICR6Xst6nHQ6O2fOcc1AgCapbfEI86rVY+DhnCaCgCaKD5gLHONmarXQUPqtcwAgBJ6puUnuMbM1fOgUe6TdgEAGan3H289DxrCaSq0jcnf+fF/O2Lu4k2VxJFzF6+qNL580x33ulkC2eqb39vuBw2JDxxVPeIEaKix85ZE9Xb93/0qGjt/CSk46qKep6VMIw4aQMtrxAFDNB83SyBTlT7ivFqNOmj0DOQ2u0agtcR/5ONu/PnD7m+9ftr5gPHYC1NWvDH0T25N6ufxF6a0xTYac8o5h+tPstnhFqeqR5xXS/Md7aBxaN/ML7rGmlC/gZbUiCxj6SNPRv8zPji5WbYd/ZnX2xPrLmqbPwj9QT6xbl3JkJ179kTPv/76Qf3+uGXLQd0qDfuTrkeJXH/WLg66MbCcg4Zk9Yc/pi9/uGsEmq+Rp6VSP8SOjWq9ve2fokefn7zafS0tx63f8Bvnyj1oPPXSS8MHDdmweXO08d13k2Zj/VZv2JA0/+7ll5N2m06x0DJoudwiZaa3P/9QPN2hYtMu96Ah+sOv9QbDeHmWu8aud+hJE1doO4fCDYJ64rTU6HRa6j/evN+tSf34p6Xcn3RLht48px9p6I88HaLPdKaxe+/e5FOZxpMvvhgczj5Hy0ay/qPo7Z+1opyb6zTfcg8aRtlQLW/s03Z3jV1N23j58tcPiqz3BRTBaanRlXNaasuHH0cnLV0+HJVqh9NSdrBwrWVnGvrUQcCa9+7bl3yGDhoWyk5smHR3P7L6o9CBQgcM1zoqzbfSg4ap5c+/ZyA/1TV2LW1jDhpNUs0B49x7V7qm8rVzllFJPYaVwiu1/dM3W/q0VDH6kY4Wos8z5y+J+pfeE30aZxm3/PVPR/RLf54w66ak+f+ZcmnyOet7K5PPUuEWpyqFg0X+IddaNs232oOG6LLgSg5SpmdaLil8VbPMnULbmINGE+i01MS7H0h+qJWo9E+x3APTujffjo6Ys6Sl/jgfX3PBuEpOS6197a2qDhrtcrVUJ9GlubVcbVXrQcNUmnUUTp8VCieuU9fhoNEk1WYZtsOWQ6elnn31NddWWitmI1wt1XkO689fG++/w5X51crqoGEqOQjYb9C1dh0OGi2i3INIuQeMShxz8x0t92U34oCh01K/f2WRayuNbKQ2qguo9QqmtKwPGqLsp2cgN921oggOGi1AB4y3t37o/p5Ky/qg0QmnpapV7oHp/2y6NVq15jweu1KFwwZmnhHvs5k/w6keBw3TzVlEOThotIBKTlVlfdBoxdNSjz5/4UpVTKdi1/9+eUGSFYRC20SfqzfMqCjK1apZxiHjJz6kH2qzwy3OCKowrucjODTfeh00TJwZ7XKNJbXKnfmVhlv8imlcDhpNVMkBQ7I8aOi0lKbXaZGlVj4tpR9p6DLYdIg+0/dpWKQvua02/D8KHSzi7yDTV7uGaL71PmiIKutHe3e45pnb+HFbRS3bSeNy0GiSSg8YWWrF01Ih5ZxC0oHi1n/4zXBzVv715Zkt9SNwN74Nl371Iw39kadD7I7w9F3g/h3hT7/ySvK5f//+ZDw9ekT86flhfxRj+vJfasTBwmi+jThoGO1XrvEgmmfoj7lZ8av3Pwl2T0ct20njctBokmYeNFrxtJTv0bVTNu3c/Z5b4vJkedDwswxNu1VCdQX6kYb+yNMh+rRM48W33x7u5t/cZ9Reyc195Z7GyZLm28iDhsQHxsNt+7tOCc0z9Mes2BMfhO97e0fS/Nuh3dFHe/cPd//g033RQ+4P/j+2fxq9s2df0nzHG9uT70HNxppvGNyWNC95/cAw1k/T+s3WT5JmddP0N+z8dHiYdJS7nUL3smhcDhpN0MwDRiteLRVSbkW1sR90NTdA+lrxtJR+wDpYuNbkxxv6I0+H6DN9R7h9hu4IVwaiz0bfEV4pzbdYuEHqwvaxnoH8065T0YPGmm0H/rCve/VAd/2Z66Ch5m3uIBIKsfFEnyu27Ew+f7i58JnOKmxa6vbaJ3uHu9uBJh1aZluXsiJ18NC4HDQarJkHjPue+JfogTjK8WkczTqFVekBw2gHr1WrnZYqRj/SVgi3OF1L28D/U1bYQUOflRw0Xt1V+MMX/6Bhcetr25NPHSCsn03TP2iEotzvTb8n1zhM43LQaKD4gDGu2aelyqVh3WI3VDWnpUynZhloXcUOGopSp6f0aQcNnZ56eWfhj/6t3fuSZlF7+tOmlT5o/O07u6J9+6Pk1FR6eB2cbJp+1PIHz0GjwbI6YOiRGZX6yk1LXdPoTr/jvqbtANVkGZZG10rz1gHL4oPt64sGBxeI/izbMdziV0zjctBokKwOGNX8Qeq01MPPrnVtpbXraamxC+5ybdV58sVLXVN52vEhh50i/ec3Ms560A2COtF25qDRRNUcSOygUU22UY52PC1Vq492bUxuECwXWUZz6Q+q0VdPif32FK5T1+Gg0UT6c96zb5/7G2oNzTpgSLVZRhYqmbfuJneLjCZpxkFjTJFLbrsNB40mOWLe4hVPvfGO+xtqDclpqblLVrpFbDq9sW/n7hcLC9dCWum0lH6ozQ63KA2l+TbqoFG4y73x96K0Km1jDhpNkFX9RpaamWWENDPzKKbVTkvphxq6f8Jiy0cfJZ92p3c6RJ+j3YtRKpr1R6H51vug4R7jnvnDFtudtjEHjQZr1dNS06dPT6K/vz+6+OKLo8svvzwaGBhIwi16wxQOGIXLDltFsw8Y9gIgnSZxnUY9aMi++IBhBw1jzfY4Eb+fhpe3hoaS9mLRrD8KzbdeB43e/vzybn4z32i0jTloNNCR1y9e1WqnpfSUoVOmTY9OP/30aMKECdGpp54anXPOOdGkSZOiM844Q90b+ljwx9ZOXlXNaalZD/5yuJKyHh5de8ECt4hNYQcNhes06kHDzzT+bXBw+B3hok9lGrv3HjhA625wHWjSwxQLzb8Z783WfLM+aMTbdVXPwKwlrhVFaBtz0GigVj0tdc0110TnnXdedNZZZyUHjZNPPjk6/vjjo3HjxjV8R6jltFS9DhqtcFqq2HOAQn/mFumDhg4M6W6iTx007PEhitUbNlR00HCLYk+4TbZ/+nEn9aD5ZnXQ0CPcm3Hga1faxhw0GqRVDxhf+9rXomOOOSY66qijktCBQgcOZR1u0RumlgOGKNvIWiscMIrRD7XZ4RYlyL2EKTmQ6KDiOtdM8631oKHK7TF9+S+5VpRJ25iDRgMcMXfxpg0f73R/Q9mo9T6NZ159Lbpkzrxozpw50Q033BBdd9110ZVXXhlde+210dy5c6PZs2e3xWmpetKd34+snUwpNEOFV7/WdiCp5aCh+abrhVCZQ06aOKjtHAo3CLJQjyxDO3+1VA2vZcrlctEVV1wRXXrppckpKjVfddVVycHDLXrD1Jpl1EMrZxmdxF2plOzTVvpPDir9uWA9kv6gKj1oaHquEWht+nO+7Ec/rThm/M0viob9wC5c/tcH9Zv7s0dKxtJHnhw+YOjgcPXVVydx2WWXJVnGjBmNv3mNAwZ8to+H/uwrOWiExgfayiWXXDL//PPPTyqbjzvuuOi0006LZs2alVza+vWvfz065ZRTkj/zW265Jbrpppui66+/PlqwYEF06623Jt0WLVoUnXzd/OTHdFLuhmjx4sU6lRRNmzYtueLpggsuiGbOnDl8ULDQ5bTKJnSAULsOEAoNq+xCzbrMNs46GnpaSo8PiaLN7q+6Nei01MNr+jI7B4/K9fbPnOMaD1JNpgG0LR0YdGXS+PHjozPPPHP4wHD22Wcnp4luvPHG5MCwcOHC5ICgA8bNN9+cNC9dujT5VD8dNHQQ0H0V+rNXs+ondABwf/5J9mDN8cEquf/CTj+pXd11MLnooouSbjqAuMVsGJXod+x5q2js2fdxVVELsozWxkEDXUOZxbHHHptkGAodNHQQ0VVLOpAoY1A2oQOFDg46WNgB5Fvf+la0bNmypLuyDh00dEBQ5pDP55ODgULNlkXoQKB6CjuoqL/dxKfQMOqmg5Y+3WICLY2DBrrCuHHjVh199NHJJa4KXdqqU1Q6aEycODH509bBYMmSJcmBwjIMxe233x7dddddwwcMZSM6aGgcO92kT7Urg1CGobD+yiDS/e1go0+FDh5uMYGWx0EDXUF3XKu+4Rvf+EZysNCBQjfU6U9bdRr647ZTUAodKHQAue2225LQgUQHC2Udykh00FBWoYODZRH61HRUn6EKbR1M9KmwOg4No0/NV9118FDW4RYTaHkcNBKvxaH1VfxpHLvjKKXXfVbriDjGFxqL0jLJpDj+vNBYNq3Hc3FoXHzzm99MKrpVd2B/4Kp/UOieiHnz5iXddCpJGYYOEDpw6KChg4TqPdR9/vz5yYFCB5n0QUBh9ROahrpbpqGDg9VvqJ8Na8Opv1tMoC1w0EjYH7TRQUN/1NPjeEEdYn8Wh22T9EHjqDi2Fho/82wcPyw0JuPa8Nbf5qODhvrZZdA2XPpTww64Zi2LDjK2LPLZOGx40bxnFxqT7nPdp8Y9Lo71qU9Jr4//2TniP/xN+sNXXYXVTSh0YFBmobDTT8oo7rnnnqSbsgkdHHRqSTfeqVkHDDXbwcOyC/3x2wFEBwMdPNRNzcokdICx+gsNZ/UZ6u8WE2gbHDQS6UxD7KAhflahYfyDhvzKfcqYONLbL3TQSA9v0zjLfaq/DZvONNLzTU+/2LzT45Zan/RnZ9EBQAeEO+64I7rzzjuTA4aa1U0V2/r8zne+Ey1fvjw5YNx9991J9+9+97vJ8Ip77703OeDYnduquLYDgQ4CuoLK6ip0QEg3K8PQOMpw1E0HDmUarj+vLEXb4aCRsD9oEzpo2NN6tV1GO2ik6TSRHTTs0z9oyH9xn19zn6MdNIyWp5qDRnp95Hvus3Poj14V2co07LSTsgllFgodPHQayq6M0sHDDhh20NBBxA4yatanpqnMQ5mFDhz6tIOCsgd96sBgWYXu4dCBxLISZR8Kt5hAW+GgkSjnoPHrOH4ch7ZL6KAhOkWkYUSnk9LbUM3pTEOnl3RAMTasfdqwai920FA/HSTEPz1ln8UOGun1SQ/fGZYsWTI1/nNfEB8cFsQHhQVx80o/4gPGyviAsDLOMJKIs42VP/zhD1fed999q+MDyOq432o1f//7318dZxtJczzO6nnz5q2Os4fV8QFi8OKLLx7UZ5xRDMYHhsE4k0ja1T0+WAxedNFFST87dWX1HG4xgbbDQQMAUDYOGgCAsnHQAACUjYMGAKBsOjgUiSE3CAAAAAAAAAAAAAAAAAAAAAAAAAAAADKiu/6nFBqH6THr2wuNyRNxR3uLYVayfAKB/4KqRmnkPPWYfb1lcjRZLJP2iXZ7C6SeEq2nSQMAAKDB7ozD3sNUTDrR0Os4VGi113esisP66ZUi1myFfCsEq/mMQmOS1BRLYtIF4nQhUc322hEVeK251PL4iYZNT/NML4/GseWx6S1M2kb2M6XGl/Q802x5/jJp+8xn7onDn29oPWx+fxGHvZ3XhlOiYe3WL5R4qLvR9vPfXmzjaHr2pmLrZ99BOtHQ8qbX2ZZRtB+oWcv73+Iotd4+DVdsP7FphrZBsWVO70Ol1hsAAAAZG4gj/d7AtC+4TxXy0smACsEqpKXDLI4j3d0Kg1bYtLCCoT9t9TN+YlBMseUplmjo0z8zbzUDpQrQptT44g9vNJ4tXzpsvGLrEZqfSc9Xig1r07L18cNPeNJh06sk0UjvU6Otd1qx/aTUNii1zBovvQ/5USzhAQAAQAYsObAzzsfFoXYrrKmQZslAujbBzgorREmLhkufaV5QaEyGyRUah6cv6WmLdRcrJIqa0zUaVkAstTzFEg0rdBar0ShWgDalxhd/eOOPZ9tdSq2HjZc+m2+F9EoTDdEwts1tG2kca9Z8xBIfm56W0b7P9DKlkwPxE41S6+1T92L7iZr9bTDaMvv7UGi9AQAAAAAAAAAAAAAAAAAAAAAAAAAAAAAAAAAAAAAAAKDVHDp+YlRNuNEBAAAA4GCWOLzzy0vKChINAAAAAKMi0QAAAACQORINAAAAAJkj0QAAAACQORINAAAAAJkj0QAAAACQORINAAAAAJkj0QAAAACQORINAAAAAJkj0QAAAACQORINAAAAAJkj0QAAAABQld7+WSt6B/LB5CDLREPz6JmWn+BaAQAAAHSMvvm9KvD70TMtN84NMUKWiYYc1p+/Np7fkGsFAAAA0El6B3K70omG63yQrBMNk8wzTnpcKwAAAIB2FhfwB3v7c4+71lHVK9GQeFnW67It1woAAACg3Si5UJLhWstWz0RDevpmf6FUjQoAAACAFtTTn1ugy6Rca8XqnWgYJRuH9c040rUCAAAAaEW6uTuLmoJGJRqipKhnILfZtQIAAABoFZ/ru+bzSYKR0Y3WjUw0DJdSAQAAAC1EBXTd8+BaM9GMREPidRnsHcgtc60AAAAAGk0JRlwon+RaM9WsREMO7Zv5RWo3AAAAgAaLC+FD9X48bDMTDaNkQ0mHawUAAABQD70DuTUK11pXljhUGm70zOgyKl1O5VoBAAAAZKW3P79ctRiutStxKRUAAACQkcMGZp5BAfsAPQK3t3/mHNcKAAAAoBK8Nbs4vdyPbQMAAABUom9+rwrReieG69I0Y0455/DQPRil46wH3eh1p+00pi9/uGsFAAAAEKKCc8+0/ATX2nSWPISeMBUKG96N3hB68lbPQP5p1woAAADA9A7kdvX05xa41pbRDolGwtUCuTYAAACgu8WF48He/tzjrrXltE2i4cTbc6hnID/VtQIAAADdRcmFkgzX2rLaLdEQXXqmGiLXCgAAAHS+noHc9Ha6xKcdEw2j7dwKN9QDAAAAdTOmL/+ldkowTDsnGuJqjla5VgAAAKAz6Ix6kmD0ze91ndpKuycaCW4UB4BsjZ23JDrm5jujrdt3VBwb3/2gYfHcptdHja/c+K1I6+NWDQDaggq3qslwrW2pIxINR/dt6C3rrhUAUKm4QD5OhfIbf/5w1O42vvt+kmAcMWfJard6ANDylGB0ypOPOinRkDjZmMSN4gBQhSPmLt6kgvm7H29zRfX2tfSRJ5Mk43/GiZNbPTTI4y9M2R1H9PTgnLrHUy/PrGtoPR5fO2WvWzWgruIEY0gvj3OtHaHTEg3TzpezAUDDqVCuS6U6wYTF93CpVJOoYP6vcQG93b297Z+SJOPRtRe03AvQ2pkVIolCuM3yGb2Vuncgt8a1tp7CPQqrwpGb5IYKsnUNJRWh8LeNsXtVegZym12nptP69/TnH3StAABfXCDvuEulSDIa77EXpqxQwfw/3rzffRvt6w9bvpMkGavWnPcFt3ookwperjHICpFPrFtXU4g17967N3r+9ddH9A/FRzt3Rn/csiVpfvLFF0dMo9Fh26FnYNaSdrkMZ0xf/nAV9NPhepVk6xpKKkJhw7vRi4rnv17LoOVynZrCtotrBQAYLpVCFh5dO2WTCua7925130ZtdNBulifWXZQkGW7VUCF9d16MSDysEBkqfFcShe+q0JxONPbu2xe9v21b0vz0K68kw1m/UomG+u3as2fEeE+99FLSrmnK6g0bDupXbRx6+pRk+7jN0rJ6+/MPFb7H3LKkg3v6UiWXd9l3HkoqQmHDu9HLUkjYmntfixLGw/pmHOlageF9v9JwowPtTYVyLpVCrVQo/+eXrnHfRDZUYGi093b8W5JgPPr8ZB4cUINCoXQ4hvyXndmBNFT4riTEmtOJxu83bkz6pVlyUSzR+O369Umzb9/+/Ul/JRrpxELzs+lUG61aoFACUfjuXGKRAVvXUFIRilq3zRj3vhG9/8J1ahi9TLGVLu1Cc9m+vHz562VFrfs+0BLiAnlyqdTEux9wh9P2xaVSzfPYH6b0qWCe5aVSqQLqcKx97S3Xt364VCo7o71F2Q6kocJ3JSHWbImGJQ/PbtqUdN/+ySdJezrReGtoKGn2azQ0jf0usbB+Nl4nJxpKKJLfWh1vQLd1DSUVoch628TrN6RwrQ2hbeoa0cVsXw4lFaHIet8HGs4ulVr35ubkQFpP+qM9996Vri17dqnUhCX3RKfffl8wLAmpNGb967/+v9wmQ0DWl0qlJYUeF41IMrhUqrEOHX/WGjuYdnscctJZDT/z3dOfW5D8vvrzD7lOdWfrG0oqQmHDu9Ez5d7y3ZB3k8RJ3JoD/2c8Drcb2b4cSipCUc99H6g7FaAbdanUgT/X+iQbdqlUlo5fuCyZpttcKEKFchXO60n7Tb2TjO2fvsmlUuh4h/Xnr3X/xSVv0q8nKzyFkopQNKqwpfs5tG2UfLlOmRi+dMsL1xtdxPblUFIRikbt+0CmvjxvyddUgP7KTUuj6T/6aV1jzs8eOejPVfE/5tyW9Ks1rvjxz4drHbKy7s23k23DS/1Ke3zNBeNUMO+kp0r9+vnzn35s7eRVNccLU1Yo/rBl7sVucwFNoXsECv+7rfOoXCs8hZKKUDSjsBUnB/ZErfWuU2aGb1Tvm82lmV3G9uVQUhGKZuz7QENkXXgX/bG2uitX/qyQuMxfwgGghHpeKtVoq/54eZJkZOkf/zA1mabbXEDD2Fn5OAZdp5ZjhadQUhGKVihs6YZubdfR7jkCSrF9OZRUhKIV9n0gU0dev3iVCtrPvfqaKzJlp9UTjWNuvoNLpcqgAvQT6waivdF7ZcW+6OOGxP7ok4pi+6cbk2Tgt+tnuD2gdhvf+3kyzUfWTm7aIzXRXQ4bmHlGqycWPis8hZKKULRaYau3P79c27xnWn6C6wSUxfblUFIRilbb94Ga1KMWI61VEw1dKqX15lKp2tnlVM9sXOS2bmX+ecMryX5iofZ2obefa915UlVl7EBaa/QvvSf5HgY3vxO9++FH0ZnzlwSH8+PIK2cNN//JqeeN6NeMcJulqJ5puXFJIVePTO2b3+s6txVb11BSEYpyt00zKNlI/q8yekqXrSvRmHCbvWFsvqGkIhTNWk4gc/VOMkR/xq2GS6WyY5dT7dz9ntu6lfMTDcWt//CbpF8r7j+GS6WK09nfMSXe1GwH0tAjXysJseb0ezRKRSu+GdxtlmHxtrMbiQ96B0m7snUNJRWhKLZtWo57eWEt782wdc1t/JioYzRrn7L5hpKKUDRrOYHM1PNSqVbHpVLZUSFbUSslGpZY+Fox0Vi3+YFkvR9e08fb54s48MI3i9yudOJhB9JQ4buSEGtOJxqiN3hbP70DI/0ejWKJhqTH2/LRR8Pv3NA0rNnay0lsSoVtB90gHNpOncTWNZRUhMKGd6O3jZ6B/NP6Lu17VPNoSYita6hw3Mpx3asfJ7+ZUL+s4rVP9ka/ev+TYL9Ko1n7lM03lFSEolnLCWSiEbUYrejnz6zhUqmM1Hqp1Gj0KOQDBdQD0QrsUim3KVCEn2jongLXK2EH0lDhu5IQa/YTDXl/27Zo3VtvlZVo2JvB1RyKTn5hXyPYuoaSilC0/bZxNR3pcH0OYusaKhyHYu6r25J99b63d0R3vLE9ab5hcFvSb9ve/dHQp/uT5vvj/nLra9uT9j379yftGtbGs34a74NP9yXNKtxb811vFqZh09+8e1+0L56Mmv1EQ+PZvP3pl5q3+m3Y+emI8X64eefwNC3RsPl9/+1Cv//Y/mkUzy5pLiey3KdGfLejXEJn8w0lFaHIcjmBhurWJGP4UqkbCuufbSzec/5PfvKf3CbueFlcKlUOP9loBVwqVb7RHuFpB9JQ4buSEGsOJRom/TZw1VLI0I4dI4ZV8+83bnRtB6i7gkSjNj3jJ46z9a0gGvom76yoNsO9FHFVHOvT/2WhGitb31DhOBRKCkJn+S0BSXdTomCFcRXorXCvsOmExkuHkgufuqcTDZuGb7R5q9mSmTTrl040NE5Ierqlwraz2+w1SX+nLoo+mMHmG0oqQpHlcgINYW8C78ZLpfRuDK17lvSXe/odhTeOu03cFVTIVjSKJRvNxqVS2auy0NmR8dnxE6e7zYIuZftCqHAcilCNhhW2VRi3WoW/fWfXiH6lCvtqTtdoWIKQrt2weYna/RoNTcOv7bDpF5u3Dad1UXdLatKJxjMf70mabb0fcv2e3bYnaVdzOWHb2W32mpRKLHw231BSEYoslxOoOzvz3grq/ZbntPue+JdkvR9+dq3rko1P49B0u+kSrMdeuHC+Ctr1ulTK2JmhWQ/+0nVpvlUbrkiSjOAL+kLhXtpXTvz2pf7bN0fLSF6ALmcFy1DhmMgumlWAt/mGkopQNGs5gYrEheFxKhBf9oOfuCJTcynJsIJkvU174G+SZODtoQ9dl2zc/PfhN54T9YuxC+5yW7+xPtq1cfhSqax9sH19Ml0eiQtADh1/1horXBL1D7fZG8bmG0oqQtGs5QTKdunPHx93xNxFK4fj+iWri8XY65dE4265K7r0gZ9E02uMM+64LxjHL7z7oAJkaLhKQolEsbjh7x91RbpscKlUYzQzsUhb8/rSZL137X7XdcnO6g0zkmm7TQx0DSs8VRpudKBt2b4cSipCwb6PjnDEvMUrVHB+6o13XBGoPnbt+TR5dKlCBUlrLvY401bTnZdKTVmhwvCbW58qbIQm037TKE++eGndkitN99HnJ/PUM3QlKzyFnjAVinYvbB3Wn7/WTqxZHNY340jXG13E9uVQUhGKdt/3geGbw9/7RMXoxmlkgTEL03/wk0ItSRe92O83f5j6vArE1YTO1tcjtN/43XS/SNahS6V+/0r296G88Mb3ku3DpVLoZlZ4CiUVoWjHwtaYAy9adO9GyS0rtOd2uUHQhWxfDiUVoWjHfR8YpoJz3/d+HO3Zd/Dj6uqtXRKNvXEkCUYcbrPBo4LzMxvnu61VX+2y34QoKdK2cpsNKXYwrTU2bSnUyv7lxddEn+7dGxzGjz859bwR7UdeOWtEe6PDbZKOZusaSipC0Q7bJk4gJiVJxUBuc6e8wR3Zs305lFSEoh32feAg9jbwel8qVUo7FBjtUqkp182L5s6dG91www3RLbfcEt11113xH8Dy6Ec/+lH0V3/1V9GKFSui+++/P/r2t78dLV26NFqyZEnyefvtt3f0U4TssqqduwsvOmuEdk00tJ269VKpwgv7Sr/l2g6mofdLlBvpN3frhXv79+8/aBg//LeBp1/g1+jopgKFrWsoqQhFK24b926MOLHIP+06AaOyfTmUVISiFfd9oCQ7O//hnvqffS6l1QuMdqnUlEsujSZPnhydf/750ZQpU5Lm8847Lzr77LOjc889N5o0aVJ0zjnnJO3qfsEFFyTDuc3dsexlfVG0s7DBGqTdEo1nNi4seamU1qc7Y2TiYQfTUAG83CiWaGx8991o5549w8PZi/jUXCrR8MdT2LDpaVh7OYlNqeimAoWtayipCEUrbJve/vxDyb47ypufgVJsXw4lFaFohX0fKJsKzj/43bPJARJh6UulbrrppqQmY/r06UmCcdppp0WnnHJKdPLJJ0cTJkyITjrppOjEE09MQu1f//rXo9NPP73jz1qr4NyoS6WMX1DVC/xanbaTwm22rlWo0Sh8b4cNzDzDdR7BDqahAni5USzR0BvCZcfu3dEbW7dGz23alLSrX6lEo9TbvpVY7EslFppfejrVRLINTrsg6unPP5je1+NYpcty3KbqCPZ9h5KKUNjwbvSGiLd78hZv3cjtOgE1s305lFSEohn7PlCxVrhUqh088+prSYJxxsDF0VlnnZUkDkosTjjhhOi4444bTiyOP/745FPdFccee2zSf/z48R19g69eQqeCcyMvlUqzgle7JBmPrJ081W06jMIOpqECeLkxWqJh3v6w8E4dG8/YNGRox46kfa93/5pNv26JRpkFip5p+Qm9/bnH7TeRRNyu7m6QlmbrGkoqQlHJtqmGatfibTik7dgu2xDtyfblUFIRinrv+0DN7Oz8jr2Nv+G7ndi7MaZNmxZddNFF0cDAQHTxxRcntRmKSy+9NLrkkkuGP9VPw/b19XXFpVJ2dj6Kdhc2WJO0epJhN3zzVKnKHHLSxEE7oHZ5DLlNkgl3g/Kq4WREBen+/IM903JNvX/M1jeUVITChnej1yxOLNwToXK79EQo1xmoO9uXKw03OtA64kJz8jbwf/jDS64I1JrsLeHNYjd8K6699tro6quvjq666qrk85prrony+Xw0Z86c5BKqmTNnJt1nzJiRdNfwV155ZVdcKvXm1ocLGwxFWTLmNhvQNnoGctN1U3M6Ientzy8v510PGvbQvplfdK1lscJTKKkIRa2FrXjdpmo59USoz/TN73WdAQDVsHdjvL6juWefR2NJhkWj2aVSA/nZSVKhROK6665LQsmEullioW5KNmbPLgyrZOTSSy/lUilEH2xfnyQYD6/p6+injAG9/TPnxP/Vyb0LhcjtOtCcxKAbtKR6Jxrxcrl3VuRXuU4AgEa66KKLNumyHz0pSfci6GbmU089NTrjjDOSbrpcSIVqnc3XpULqppugjz766OjII4+MjjrqqGQ89VMBfMGCBdHNN98c3XrrrUnoMbAKddenHvl6++23R3fccUfSfNWNN6cPTsOh/rfddlsyjKajAv6VV14ZTZ06NbkhW0940jIq9IQnXcqkYXTj9o033hjlcrnh2gjVOCiUFCg0ncsuuywJuxzK4vLLL4+uuOKKZBh9ptttfIVN223GjmVn55t9qVSr490Y6Gbxf/ag9x++vtgN/2n1SjSUYLhGAECzTJw4MUkSdAPzMccck4QSCMX48eOTR7XqPgUVqlXg1qNdTz/99OQGaSUn6qYkZOHChdHixYuTZELts2bNiubNm5e0K1n41re+lYTeKaHQ+yeWLVuWhBIK664DlKZjiYmSBr2zQqHpqsCvJOPCCy9MEgTNR8mFkgglDUoULIGwdt1DoU+NqwRB42md1N1C3SyxUMKk/rrvQuOpu9VoaH01XXWLo6Nv8H18zQXjVHD+YPvvXFEaxVgy5jYdgDLVK9EAADTRaaedtkK1Fkow7ClK48aNi7761a8mT05SIqECtS4VUsFbyYU9WUk1CSqYK5FQzYWSgvnz5ye1COqmT3VTwrBo0aIkCVGthBINJRWqzVC7uqu/mq1diYaSCtWMKIFQrYRC90GoXWH3RChpsOTBkgAtq5ID62a1EEoUdDmUQt00rH1qPW0YhdZZw7n7LpJ5aFoKS2DcZuxY/7bpysmPPn/hyspi8upGxWMvTB5sVFgSUSr+edPF/1+36QBUgEQDADqMLnX6yle+kiQVX/va15LmL3/5y0kSofdDKKnQo1x1CVX6Ea5Wu2E1GEoSdEmTah7ssii1W3KhZiUi6qdERJ/q596UnXyq3cazRENJhpILXaplNRmWSOhTSYGaLcmwBMESB3VXImRJh7pZ93TioERCSUX6HgyblkL91U3Da1qapprdZgQA1IhEAwA6iJIHSyKUQKg2Q59KMnSplF0WpVoLXSal+yFUWFchW4V1Fcqvv/76JDlQ6NImhZIIJRVWw5GurVBSoUul7rzzzqRZn6rZUI2HxrVaEIUlGlajYAmECviWVFiCoE91Uw2Dlk3D2TAaXzUf+lQ/JQq6FEqPqrXLprROGl7JhM3DEhQNp3Xv7+9Phtc04ulygy8AZIhEAwA6wMknn7xKScS55547fI+DQjdRK6lQdzVbAdwK5vpUQd5qAKwgrxoHJQSqqbDaCCUWCrUribB7MSyx0L0alpyopsKSC4XalcCo9kLzUMHeQomO3UuhZVFCoMRAYctqyZCFhtG4arbLnWx66qbhrbZDw1pthk3XQsuiT7cZAQAZItFAymtxHFForAs9znh3obHh0uv2qziyesN/elp/Hsf2QmNdpH93Wa4D2p0K1Cpo6+y+CvIq0CtBsMuZlBikayGsJkJhN3Dr054UpWYNr5oI3Yyt6ereCSUeSiI03fSnNSuZ0OVQ6XstNK7d0K1lU7NqK6zgr08r7Cu50XDqbkmDJQNKgqwGRO0KG1/DpBMMbQt1U4KhZiUqqrWwUG2GajLUPR6n49+NAQDNQqKBlFKJRjpJUIFa+8DCpO0zn9Gji62Abf3GJG2FfjZesUTjqDg0zl/E8d/i+Kxr/8s45J44bPoa1qZhw/1p0vaZz2yNw5pF62OF8XISDQ1j4w/EoWkvSNoK6/VcobHotEptlzQNY0+EmxKHDaPtk+7nj69+JjTfHyZthX5+eznfj/UTfZLItLo4gRhnyYI+lUD4tQzpJEJPgFK/u+++O/r2t7+dtKufQsMpNJwlHJqGhrnnnnui73znO8mnxrf+6RoMJSVKLFTwVwHfkgclAEoQ1M+SDIX6W62Emi1hsORA3dVNwyoB0bg2voaxmgx9qiZECYRqaKxWRNOy+Wp8JTxqt3mqf5yU8JZYAKgjEg2kVJJopAvAVkA2KryqPR1SKtGwQrxoOfzxFZYELI4j3d0KzbUmGqLp2aclMmKfUirRKLVdjE3XwhKC9PKa9Dqlp1VqvmpPb+dyvx+xYdPbEa0oLtxvUi2CLktSIT/9NCjVYFitRTrxULuSAyUJSjasu5IJJR5KJO69996kXd3VX+NrWnbztz5tmpZ0KCzZsXloWLsXw278VqhdhXxLJiwhUBKhGg/1t5oKRboGw5IRjafQNFSDYZddKemwWg3rplACYo+yVSgpcZsRAFBHJBpISRegfekkoVSBWgVgSxr+LA51t37paaT5iYZNz87sW2IhqmnQNNLJhdU6aPlfKDR+5qo4NE6xRMPG8VntivW/M470dKTYtMpNNNQtV2j8zHFx2DD+eo9Wo1FsvqUSjVLfj21b0Xb1kx60CkssVJOgS6PsqU92KZMlH7qUKT2s3cidvqHbEgdLNqy2Q0mHmhWWeKhZNRv33Xdf8mm1HDbud7/73SSsm4UlJEpYtIx2CZUSjHTNhyUBSgr0qUTCEg5LNNI1EkpCNA0lJ6rpUDdNw10SNZxw6FPjuASGS6UAoEFINAAAAABkjkQDAAAAQOZINAAAAABkjkQDAAAAQOYscag03OgAAAAAAAAAAAAAAAAAAAAAAAAAAAAAAAAAAAAAAAAAAAAAAAAAAAAAgFFMiUMvgUvHpDjMa3EcUWjMXHraR8Vh8/9/x7E7jlqMj8PWozeOWqdXjvQ6jFGHOvrzOLYXGkvKapm2us920ajvHAAAAB4rgKZ9Ng51+9Okrb5JRtqdcTxUaMzEr+JIJ0uNkPU6lFJukpHFMtk+0U5IMgAAAJoknUykXRSHnfX2k4x74tB4ijPUwVFB9Nk41H21OqRMjyM0jk17IA7rr4KzX0D8szh0Jl39/0IdUkLLk57egjj86dnyrI8jfXZf8/i/47D1SC9rWmh8fx1CbDwti1+rUGy7ivVLb1dLMlRjo34vxOELLVP6e/qhOqRoO4e+Q5uGQrSd0vuNvkdL6DSMJa+235Ra77Ri+4mEtoEUW2b/Oy+13gAAAMiQClyjSScZKlxaAU2FO41v/dRsBUNdgmWFWhU4rbBXqpZEZ9yVEEi6gKhmjaPkwuZpBdVSy5OuyUhPT/O0Avn/iCO9PJbIaPo2PT8JKzV+eh18Wh4bz592qfXQ/J4rNCbTsGYlGRpuYdL2mc+siiOU3KSXybb/XyZthYK7jWPTs22r6fnfmxktybBllFLrnTbaflJqG4SWOf2dl1pvAAAAZEwFr9GogGcFXp9fuLQCb5qdTf9C0jZSetrFkoxSBXdfenlCSYZfWBYtnxVaVXhOr2t6ejLa+MWWNTSeCtXpwniav11DVMC2bSSWjPnSy5TeJkbjhGoX0tPzl3+0JMP6VbLepfYTfxrFpJc5vQ9Vst4AAACoUbGC1v/lPiWdCNiZ43RY4c0KlBbpS1IWx5HuZ/NMT7tYkuEX9NNKLU8oyUgXQo2mYWe1SxWeZbTxiyUZNp4ffi1COjTf0PxMer5SbNj0Mml90vOwsHVWTYDfTypNMuz7HW29faH9pNQ2kGLLrPHS+5A/jCK9DgAAAMiICuKhQrEKZemCqRIBK2imkxIVNtOFcBMa1qjQa2eybdpSLMnwC+5q143Moy1PtTUZpZKM0cb3l9WExjOjrYc/nrVXk2QU+75F/dI3iFviI/7y+9vJX15bl1LrPRott21XfxrWXmqZ0/tQqfUGAABAHahQZjfMqlBoZ4aNn2TYjdc2XLpwmSs0fua4OGwaKoSrsGcFTxVIrcBXTpJhhef0PRkq4I62POmCZXp6mqfdI2DLaQXm0ZIMKTV+sSRDNJ4tgy27pj3aemg8K2xrndK1H5UmGTaM3TtjNQeiadt8bDtbP1tGk94GV8Whfun9IJ0wFVtv32j7SWgblFrm0D4UWm8AAADUSfqpPrPVIUUFPEsErFCtwpsKxemz+PK7ONTff2qTPQFJoZvCTXraxZIMUQFShU6Nb4VxKbU8VqBVuz+90NOhpJwkQ4qNXyrJkPRTlspdD7EnK/04aSuoJskQbRd7ylJ6evLrONLd1WzrZ8tg7ZYMqeCe3k7pYUyx9fYV208ktA2k2DL733mp9QYAAAAAAAAAAAAAAAAAAAAAAAAAAAAAAAAAAAAAAAAAAAAAAAAAAAAAAAAAAAAAAAAAAAAAAECXOfSkiSsOHT8xqiQOOfGcL7nRAQAAAGCkUBJRTrjRAQAAAGAkSxre+eUlZQVJBgAAAICSSDIAAAAAZIokAwAAAECmSDIAAAAAZIokAwAAAECmSDIAAAAAZIokAwAAAECmSDIAAAAAZIokAwAAAECmSDIAAAAAZIokAwAAAECmSDIAAAAAZIokAwAAAECmSDIAAAAAZIokAwAAAECmSDIAAAAAZIokAwAAAECmSDIAAAAAZIokAwAAAECmSDIAAAAAZIokAwAAAECmSDIAAAAAZIokAwAAAECmSDIAAAAAZCrTJKNvfq9rAgAAANCpeqblxvUO5Hb1DOSmu04jZJVkFOaTp4YDAAAA6Eh983t7+3OPq9Bv4focJKskQ+JkZk1vf/4h1woAAACgE/jJRSOTDNG8evpmf8G1AgAAAOgEvf2zVqQTjJ7+/IOu10GyTjLG9OUPL5XUAAAAAGhDPdPyE9JJxuf6rvm863WQrJMMUVITz3e9awUAAADQzsb05b9kNQk9A/mp1lxMPZIM0Xx1M7hrBQAAANCOdC9EklSkHiV7WN+MI11jUL2SjOTm81ESHAAAAAAtTJdEqVBf6tKokLolGbHe/plz4mUacq0AAAAA2oarNajmqU71TDKk1Ds6AAAAALQoJRi6F8O1VqTeSYYkl03xNnAAAACgPSQ1GNPyE1xrxRqRZNjTrlwrAAAAgFaVJBgD+amutSqNSDIkXtbB3v78ctcKAAAAoNUk9zr05xa41qo1KskQJUV6WZ9rBQAAANAq4sL6kN7q7Vpr0sgk49C+mV/ksikAAACgxcSF9PVxrHKtNWtkkiG9/bnHs1x+AAAAADVQ4VxJhmvNRKOTDInXoeqnYQEAAADIiC6Pigvnmb/YrhlJhr040LUCAAAAaDTd4K0bvV1rppqRZEjPwKwlcaIx6FoBAAAANIoeUVvPs/7NSjJEiVMck1wrAAAAgHprxEvsmplkCJdNAQAAAA2iG6MbUQBvdpJRqKmpz6VgAAAAAJyevtlfSBKMvvm9rlPdNDvJkJ6B3OYsXiwIAAAAIMCevKRP16muLGmoNNzomWlUUgUAAAB0l7iQrcK2ajJcl7oLJRCjxSEnnfWRGz0zh/XNOLIRl4cBAAAAXUWF7G5+SV3PQP7p3v78Q64VAAAAQC2SGoxp+QmutWs1uiYHAAAA6EhJwXogP9W1drUxffnDuWwKAAAAqIEe36q3X7tWxHr7Z62IE431rhUAAABAuQqPbs0/6FqRUrh8LDfOtQIAAAAYTe9Abo1udHat8Lknbbk2AAAAAKX09ucejwvQg661qQ49aeKK0GNqS8UhJ57TkCdg9Qzkpsfbaci1AgAAAAhx9xu0TME5lESUE270utO2Oqw/f61rBQAAAJDW059boBu9XWtLsKThnV9eUlY0OsmQ5LIp3gYOAAAAjKRH1CaF5RbTDkmGbgBvxW0HAAAANI1esteqheR2SDIk3n7rdamZawUAAAC615i+/Jda+Sx8uyQZou2ol/W5VgAAAKD79PTN/kKSYLTw/QTtlGQMb08AAACgK7n3PHyu75rPuy4tqZ2SDNHLC3m/CAAAALqSEgydeXetLavdkgxxl0015F0dAAAAQEtop0JwOyYZvA0cAAAAXSWpwZiWn+BaW15bJhkxvXOkZyC32bUCAAAAnSlJMAZy011rW2jXJEP0YsM4JrlWAAAAoLPECcZQXOBd5lrbRjsnGcJlUwAAAOhIcUF3sLc//5BrbSvtnmQcNjDzDNVouFYAAACg/cUF3DUK19p22j3JECV5ukfDtQIAanHOd1Z+64i5izfVK46cu3hVo+KIeYtXnPGdlZe5VQOAttDbn3tcBVzX2pY6IcmQ5LKpFn7pIQC0hSOvX7xq7Lwl0ZN/2BBt3b6jotj47gcNi+c2vT5q3Pj3j0Zal/81e+FUt3oA0PJ6+2etiAu2Q661bXVKknFo38wvJokGAKB6KpSffuf9UScYt+COJMlwqwYALU+X5nTKfQCdkmRInGSsatd7YwCg6VQgV7z78TZXTG9fk+79UbIuY+cvafm34gKA9Azkp3bSGfNOSjJE3007vGkdAFqKXSa1ev3Lrpjevh5Y9b+5TApAW9FL9jrtkpxOSzI+13fN57lsCgAqpEI5l0mhFo+vuWDc4y9MiZ5cf2n09OCcusdTL8+sW/zjHwYircsj687/r271gLrp1Gv+Oy3JEL2vJP6u1rtWAEApyWVFcXCZFGqhQvkT6y5y30T72v7pm0mCoXCrhgwcetLEFVaI7O4460G3SRJj+vKHJwlGBz69yNY5lFCEwoZ3ow/TZWSusSXonpmeablxrhUAENKJl0mNnb2IZ5o32KNrp2xSofzjXRvdt9G+Vv3xchKMOrACJJEqRMeJhRIMXYbjurQc9yjdVaFwgxRl6xtKKEJx0PZxXO1BpJfjuU5Np+VxjQCAEBXKuUwKtbDLpH73ynXum2hfG7f+OEkwHl7Tx1nKjFkB8ol166qO519/3X1TUfTUSy9F+/fvDw7nx959+4ab1731VvTHLVtG9G9U+IVoFVRb/UZiq2nxo5zltvUNJRSh8LePL57vUPLkrRao9XE36bf9Y4YBoC6Ss/5xdMJlUtf/3a+4TKpJVCjnMqnupktHRrt8xAqQocJ3ubHlo4+ioR07kubfrl9fVpLx5IsvJt+vtX+0c2dLJBkqqMcF+C8lG6fFqWBvyUUhcstcr5JsfUMJRSjS26eYw/pmHKll6OnPj7jsrBl6BnKbD+vPX+taAQDSSZdJ/fzfnk8SjJEHQaJd479ft9h9s43FZVLVU4Jh31+xZMMKkKHCdzmx8d133TcVRfvi5MJPMp5+5ZVo5549Sf/tn3wy3D0tPY23hoaS/kpCbLz3t20bHu/3Gzcm8xl8772k3654GOtXbdg20HZqpUt/ilES5L7XIft+k5qEMtn6hhKKUNjwbvSS9M6KZDvGSYfr1BRaBt4GjrQxp5xzuO3L5cfIe7WAtqZCOZdJoRb1uExKB+xm4DKp2qSTDAs/2bCDaajwXW6oJsOSg3SSoYRAVm/YkLQrybB+pWoyrN+/v/Za0v7uxx8niYWabZpvf/hh0q5pWr9qQ+vf25+LWv3s94HkIrfL7hfRWXt1SwYok33noYQiFDa8G310yT0tSS1L0y5bspoV1woM7/eVhhsdaG/JZUVxcJkUaqFCedaXSelg3WjlXCZVKHARlYbeXu02YV2TDD/UT9RcKskIXTolSlaUZKSnn55mtaH17zn5nJYtTOg+i8J3l9sVJxqHu84FcYFej9p1bWWx7zyUUITChnejly1e3knJ/jYwa4nr1FA9A/mne/tnrXCt6HK2Hy9f/npZUe1+D7ScTrxM6og5S1a71UODPLZ28ioVyrN+mpQKCo3GZVK182sy0smFsQNpqPBdbpRKMlTT4FP3UknG7r17k34+3VRul0vZeFklGa1YmCiZXNTA1jeUUISi1u2TFPa1/zXhZnrNN8tth/Zl+3EooQhFrfs90DJUKOcyKdRKhfKsLpM6aeny4dCB2pq3fPixG6J+Xv/woSTB4DKp2liSEUoujB1IQ4XvcqNYkqHEwW4IV9ilTmoerSbDpudHNyQZKhS7y43qUjC39Q0lFKHIYvvYW7njaOgL8wrbksumQJKBLpVcVhQHl0mhFiqU/+MfprpvonZrX3tr+Ax4OhpB60ItRu3Kec+DHUhDhe9yo1SSoZu31awbwI3aQ0lGehqyYfPmpF33X4iaOznJqHdyYWx9QwlFKLLcPr39M+ck/yXxp+tUd7pkSrUprhVdyvbjUEIRiiz3e6Ap7DKpnz/z78mBsp7OvXela6oPLpNqnnpeJpUOJR719tQrM0kwGsgOpLXET1f/a7Ti108mzf/p9POjT/fuHe63duNg8r2uWvNC0i7/eeKFSfMvf/fMcPufnHpe0jy4+Z2kn9o3bXkn6WbjKsZeMSvatXvPcLvmJ9ZeS7hN0nCFs/yF5CJONOr++Fxb31BCEYp6bJ94XQe1vo164aHmpZvBdf+Kml1ndBHbj0MJRSjqsd8DDaVCeSMuk1KCoT/WerLLpE6//b6ikdRyVB6fuM2FIlQo/9eXZ7pvIjt+bUa9cZlU49mBlGh8YcJdQpQ8hrYRyYWx9Q0lFKGo1/axAn9DahncW9wtXFd0EduPQwlFKOq13wMNccTcxZtUiG7EZVL2x1qv2gy7TOrtocJlDVmY9sDfFJIMLr0qSYVyRb3YvtOIWgw9FYtaDHS6ZiUXxgpPoYQiFPUubOnpU4X/mdwk1ylTbnsP/5cpir03Bp3L9uNQQhGKeu/3QN0cMW/xChWgG3WZVPrPNWt2mdT07//EdandfU/8SzLN/zV74VS3yRBgl0m9t+05t+WyZ7UZ9WaXSa1acx5JJTpT3/xee69FMwu5VngKJRShaFRhK94uceKV25X1S/R6+3OP2/HPolmP1UXz2H4cSihC0aj9HsicCtCnLv2uK17Vl//nmnVthl0mlaWv3LQ0mabbXChChfJ6XCblq3cthl0m9cjaySSV6DwtklwYKzyFEopQNLKwZS/R05vDXafMxNNN7gNx0dCnXKH5bD8OJRShaOR+D2Rm7A2LX1EB+pv3roim/+indY3/Mee2EQmGxZyfPZJJnH7H/UkywGVSjadCuWL33q1uy7Uvu0xKNTM1xwtTVij+cd3Ue/bv/+v/7jYX0BSWXBw2MPMM16nprPAUSihC0YzClpKMZLvFSYfrlIn0TfauE7qE7cehhCIUzdjvgYZICtlxZEl/qq3u5l88lqw3l0mVpsK0CuX1vEyqUewyqV2733VdavfEuouTabrNBTRc/H+bnDVvpeTCWOEplFCEommFreRm7SQhGHJdMjOmCffCoLlsPw4lFKFo2n4P1JPdEP721uxqB6QdkgwukyqPCtCNuEyq3uwyqTe2/ovrUrs1ry9Npsm9HWiGVk4ujBWeQglFKJpd2NK21DaNE45lrhNQMduPQwlFKJq93wOZiwvY41TIvuwH2d1EbVo9ydCjfEkwRqcCtKKTLpPKyke7NiYvJHz0+cm8qwUNFReA1+g/tmcg3/K1sFZ4CiUUoWiVwpYedattrEffuk5A2Ww/DiUUoWiV/R7IjArZinpo5STDLpP6n3GS5TYFAnSvgQrlm7f9JtobvTdq7Is+bljsjz6pKJ4evD5JMLK8TOrJFy9Npuk2F1B37ZRcGCs8hRKKULRSYSv1ONpB1wkoi+3HoYQiFK203wM1q9dlUqaVkwwukyrPqpcuXfTo8xeu1Jn6YvHYWt1APSX6/SuLKg7tI0fePGe4ffWGGXWNrTvXuD2gdlwmVR07kBKVFSbsrPph/flrXae2YesbSihCUc32qTdt9yTZ6J85x3XKxKEnTVxh60vUNw458ZyG3hdj8w0lFKGw4d3oQPuKC9h1u0zKtGqSwWVS2VEhW7Fz93tu61YmOWi7OGnpcte19ekyKa23kiy3KVAmO5DWGpu2vJN8F3958TXRp3v3Bofx409OPW9E+5FXzhrR3uhwm6Sk+LexSr+PdkwujK1vKKEIRSXbp9Hi72K9vo8xffnDXaea2LoSjQm32RvC5hlKKELRjGUE6kKFbEU96Y+41dhlUlo2okVjWuGzlfGm8OrZgfSJdeuqji0ffRTt2rMnaf7t+vXR/v37DxrGjydffNF9d4X2j3bujP64ZcuIYRoV5RQm4t9Aklz09OcWuE5ty9Y3lFCEopzt00w9fbO/kHw3A/mnXaeq2brmNn5M1DGasU/ZPEMJRSiasYxA5up9mZRpxYIil0llx2oxaqF9JB2HX3lj9OGOnS257xgukypttCfy2IE0VPguN5RkvDU0lDR3WpJh72vohOTC2PqGEopQlNo+rURv8S78d+UmuU4Vs3UNFYyJ7KIZ+5TNM5RQhKIZywhkKi5g1/0yqVbFZVLZySLBED+5MK2aZHCZ1OjsOy2WbNiBNFT4Lic2vnvgxv19cXLhJxm+97dtO6h7ehqWrGz/5BPXpeD5119Puv9+48Zk+mk2TrURKkx0YnJhbH1DCUUoQtunlRVegJjbpfdsuE6J+Ptc5RqLsnUNFYxbOX767q7oV+9/EuyXVeyJf3eh7tVEM/Ypm2cooQhFM5YRyJQK2Ypuw9OksmMv5vtg+wa3davnJxemVZMMLpMa3YEkI5xs2IE0VPguN4rVZCh52Okuo1IoQSh8b6VrMvzxFDZsehrWXk7NSalIFyZ6+2etCG2nTmLrG0ooQpHePu1CbwpPvsf+3ONq1w3iah8zyr0btq6hgnErx2uf7K1rknHdqx8nv7tQv2qiGfuUzTOUUISiGcsIZKZRl0m1Ii6Tyk5WtRil6ODcasq9TKpQYCRGRm6N2zx1TTIs/m1wMHr1vfeivfv2Jd+dupVKMnbv3Zv08z310ktJUqEaExtP8xNrrya0/j1f/6Ztm45/4Zt956GEIhQ2vBu9rfT05x/093/XK8jWNVQwLhb/sf3TZB98Z8++Ed1VMP/g08I+/78/2jPc/a43d0Sf7o+i3w7tTvoNxS3p8e54Y3tSayD3vb1jRD+blzzkkorfbD1Q6/fMx4X5pOe9Yeenw+OXM28bL70+adbNprEvnt4Ng9uGu5cTWe1TqmnUd6r7clynomyeoYQiFFktI9BwcQG7ay+TOnXpd0kwMlLvBMM/OCvOvXel69s8XCZVvpHf34HkwtiBNFT4LjeKJRm6xEl27N4dvbF1a/Tcpk1Ju/qNlmQUuz+jXklGNxUmbH1DCUUo2n37xPt+8hZ2C9274XodxNY1VDAOxba9+5NCuZpVm2DNc1/dluyXlghs3r0vKdyrWQV9eXZbISFI97PxlFyowC9WgFfiYQmD9fvh5p1Je7omw2odvv92oZ8Sk3Lmbf1sfuqnBELNfk2G5mcJii3Lra9tH+4/WmS1T1mSMfzdlkg2bJ6hhCIUWS0j0HAqZCu6DZdJZSfLy6SKUUKR/gNXtAIukypf4Xs7OLkwdiANFb7LjWJJhp8saLjC9zf65VLpREIhqzdsIMnIgK1vpeFGbyv25Ck/XO+D2LqGCsahkFB3FcKtVsFCVIBXYd4K7wpLLNS8ZtunB41XLJTgWGKRTjLSzRYy2rz9SPdLJxl+wqFYsWXncIJVTmgbh76XrCKUbNh3G0ooQmHDu9GB9tCtl0m9+/G24cuk6hFH33LXy24Td4V612KY9B93K9Ri8DSpbNmBNFT4LjdGq8kwb39Y+M+z8YxNQ4Z27Eja7dIqY9MnyajdISdNHLR1Ljc+O37idDd6W0nOdPfnl8f/X8kjiFMx5AYZwdY3VDD2o1QBPZ0AWKgmQmf7VdC32gNFejqh8SyspiEtlFhoGiGjzVuh2gufuqcTCxvHl57uaGHb2W32qvk1GYpib9+3eYYSilBktYxAwxxxw23zVSB+4Mmn3M+yexy/cFmSDGRt+g9+Ukg05i/pmkJnoxIMSddmNBuXSWXPDqQEhQlUlmQoJNQ+Wk1GsYK+X5Oh9ld37R0u5NulTAolLaEkIzRvi1Lz1niaV3pY6zdaTUalkdVvLp1kFEsujM0zlFCEIqtlBBrGzrp3mytX/ixZ72dffc11ycaeODTd/zV7Yck/l07SiMukfPoDb4VaDC6Tyl41Z7U7NIJnttFdbH8IFYxD4d+TYQV4K7wXuyejWEHfmtP3ZKgGwgr2diO41TiEEgt/3rr/QtQ8WpJh62LzFrX7iYXW279fw5alnLDt7DZ71ZRkjJZcGJtnKKEIRVbLCDREt14mte7Nt5PLpKZ/P9ub3PX8GUva3CbuCvWuxbjqx38fbfmwcNAwXCYFoBtYwTJUMC4W9sSnl3ceqAVQqPCtQruEni5l7emCvkIF/NDTpf72nV1JNxXu1V1PlbKkwAr66Xabd3q5Rpv3Wy55sXHEak9sPa09/XSp9HKWE80owNs8QwlFKJqxjEBVjpi3eIUKw48890Lyo2y2ta+95Zrqj8ukslPvBEMu/uFPk5qLz18656Bko1neHHoiWe/Hnp+yWTU5ZcULU1aUG//njatnuE0MoItZwTJUMCayi2YU4G2eoYQiFM1YRqAqdsa9FSjBaNT19XaZ1NtD2dbePPPqa8l0uUwqe5ZkWLRCsmGXSe3c/V4wPti+vurQdB9ZO7lr9iMAxVnBkmhMuM3eEDbPUEIRimYsI1CxVrtMygqP9a7NqOdlUulCMNGY+NW//0fhC2iw/7Pp1iQR2LX7XdclO5quwv1UAXQ5K1gS9Y9DTjprs9vsDWHzDSUUobDh3ehA62nFy6TSBcd6qtdlUqffcV8yXbeJu4IVhhvBr8loVnIhG9/7ebLeb2z9F9clO89sXJhMm3s80G0OPWniCitAlRuHnHjOl9zoQFuyfTmUUITChnejA63nqAV3LDti7qKVSVy/ZHWJGBp7/ZLom99ZGU1/4Cc1xxlxQTwU6cKj4viFdweHqyRU4C8W9bpMqpte5vfo2imbVBjWZUGNYElGM5ML849/mFq35ErT5TIpdCMrPFUabnSgLdl+HEooQsF+j44QF5rHqeD8g98964o/9eHXYli0i258mtTjay4Yp8LwMxsXFTZCA2x6b6trGqnR+wqXSQH1YYWnd355SVnRzoWtw/rz1/rHPBer3CDoErYfhxKKULTzfg8Ms4Lzjr0Hv2kzS7f+w2+GQ3+y1rxrT+GxdK2Oy6SaS/tMo9TzMqnVG2Yk0+YyKXQrKzyFEopQtHthK5VYuMjtcr3QRWw/DiUUoWj3/R4Yvil8w8c7XRGoMRpZYMwCl0k1XyP3mXpdJmVPk3p4TV/X7EeAzwpPoYQiFO1c2IoTimUjE4w8hcYuZftxKKEIRTvv98DwZVL/8IeXXBGocRpZYKyV6lm0nRRu03U8u0yq2tDZ+qxD+4zfTZdxZR3/8sdZyTpwmRRQH1Z4CiUUoWjHwlZv/6wVSVIRfybtLsE4tG/mF5MB0HVsPw4lFKFox/0eGGYF5z376nuZVEi7JBnaMt14mVQlrOAcRYW3r9ZLu+wzxSgpIsE42CHjJz5kB1PirDVus3Q0W99QQhEKG96N3tLi/6lVhYQit8x1ShRqNEZ2Q3ex/TiUUISinfZ7YAS7TOr1HfUtGBbTLgXGbrxMqhIHLql60W2x+mnnJIPLpIqzA2mt0b/0nmRbD25+J3r3w4+iM+cvCQ7nx5FXzhpu/pNTzxvRrxnhNktHs3UNJRShaIdtEycQa/QfpRu9XSdgBNuPQwlFKNphvwcOEheam3aZlGmHAqNdJnXEnCWr3aZDil1S9cH23xU2WJ21c5Kh7UQtRpgdSJ9Yt66mkGc3bUqad+/dGz3/+usHDePHRzt3Rn/csiVpfvLFQqLsD9Oo6KYCha1rKKEIRctum775vfH/0qD+m3oG8jyOGiXZfhxKKELRsvs9UIoKzopmXCZlWr3AmL5M6rrrrovmzZsXzZ8/P7rtttuib3/729H3v//9aOXKldFf/dVfRT/4wQ+i7373u9GyZcuiJUuWJMPceeedHf/HYAXnel8mZdo1yej2y6T0vZW6TMQOpKGCdyUh1kyS0dpsXUMJRShabdt8ru+az8f79ZD27cMGZp7hOgMl2X4cSihC0Wr7PTCqZl8mZVq9wGiXSfVffkV02WWXRdOnT48uueSS6KKLLor6+/ujgYGB6NJLL40uv/zy5HPatGlJN+t3zTXXdPTjSe0yqSj6oLDBGqAdkwwukzpww2shDk427EAaKniXG2lPvfTSiCRj47sH38Dvd39raMg1Faj/06+84toK9u/fPzy/vfv2RTv37HF9CqxftdFNBQpb11BCEYpW2TY9fbO/EO/Du7QvH9Y340jXGSiL7cehhCIUrbLfA2WJC81Nv0zKtHKB0S6TOi4/P5oyZUp0/vnnR5MnT05Czeecc0509tlnR+edd14SalY39dPw8XAdXW3e6MukTCvvM8VoOxWrxThQ8O7GOJBs2IE0VPCuJMSa00mGrN6wYbifEgSrvShVkyHp8bZ89FGSjKhZ07Bmay+n5qRUdFOBwtY1lFCEotnbZkxf/ku27yrRcJ2Bith+HEooQtHs/R6oiArOpy79blMvk2p16cukzj333Oiss86KTjvttOjUU0+NJkyYEJ1yyinRN77xjejMM89MEoxvfvObyXBKNE4//fRkWLe5O5YVnAvvQK+/kYXTQpx770rXt3XxNKmCg7+/3IgnKNmBNFTwriTEmkOXS7349ttxYrw9GW60JOO369cnzb59rjZDSYVqTNSs0PxsOtWGtkHvuRdHKtC6TdOx7DsPJRShsOHd6A3TMy03zu23Q/H3crjrDFTF9uNQQhGKZu33QMVa5TKpVnfz3z+SJBizbpof3XDDDdG1116bXAqlmgolGieffHIS48ePj0466aToxBNPTD7VTwlGnGhwmVTGZj34S6+Q2vo1GnaZFG/1TicZI5MLYwfSUMG7khBr9msy5P1t26J1b71VVk2GJRlqDkVdkowJZ0c9Zw9oW61PbbNdPQOzlnTauxXsOw8lFKGw4d3odaebuLX9ewZym3Vzt+sM1MT241BCEYpG7/dAVeJCc3KZ1FNvvJMcOBFml0mdckPhZm/dh6FLpFRLMXHixKT24utf/3pSm6FEQzUbSjCOPfbYaNy4cdExxxzDZVJ1cqDQ1R61GNpOjz4/maeSxYolF8YOpKGCdyUh1mxJRihZkNGSDBvOnlal0D0cug9DzfWqyfALFLrBuKc/tyDe75MnGLkYUrd2vmzH1jWUUIQitG3qQY+fddt40HUCMmP7cSihCEWj9nugJio4933vx1wmVUL6MildBqVLn5RMqMbiuOOOi0444YQkodDn8ccfn9RgqFn9lGSom9vcHUsF50ItRmMuk0pL12a0Oi6TqowdSEMF70pCrDlUk2GUWNj9FLrPQoZ27BgxrJp/v3GjaztA3RWNSjJCdNlOkmQM5Dbbb0LN6qZ+brCWZusaSihCUe62qZZL5LQtV7lOQOZsPw4lFKGo934P1IzLpMpjl0kdM+Hk6Oijj46OOuqo4RqKL3/5y9FXv/rVpPsxxxyTdFMthu7NUCKihMNt7o7VjMukfCoEtHotxsvv/CJJMLhMqnx2ICUK4TZLRVSr4QrKyWNVXQyqm2pD3GAtw9Y1lFCEopZtU0pv/6wVybbqzz/kOgF1Y/txKKEIRb32eyATR8xbvEIFZy6TKs0ukxo388bkEbV6BK1Cj6zV42v1iFp1V7vi4osvTu7T0ONqL7zwQtV8dPTjSe0yqUa81bsU1Wa0Om0nLpOqTM/4iePsYNrt8dnxE6e7zVIz3ceh+zl0X0cq8Vjf2z9zTrPvM7D1DSUUobDh3eg1U1JRSC5mrXCdgLqz/bjScKMDrUUF51a/TGrta2+5puZIXyY1e/bsJK6//vroxhtvTGLu3LnRzJkzoyuvvDKJq6++OmnXcOo3Z86cjv8DUMH5mY3z4y3V+Muk2gmXSaHVjUkexZpblko64sit0b0IbpCGsMJTKKEIRVaFrXh9V2mdVcPjOgENU+UJlSE3OtA67DKp9z7RefrWpT/8ZiYa03/wkyTBuDyX1wv0oquuuioJNc+YMSOaNWtWkkzoRnB1U+RyuSTR0HBuc3esVrhMqh288Mb3uEwKbUkvlevtzy8/kHToHo/80z0DuVFrVdwjXte71rJZASqUUITChnejVyxexuTG+UYnUwDQcdrlMiklF3ZQawa7TOrE2bckSUM+n08eWavLo+xt3qq5sORD7VdccUXSTe3xMB19mdRjL1w4XwXnZl8m1Q60nbhMCp2ikHi4+xUOxCo92tUNkujpzz9o/V2nsjQkyeib32s3x/vLDQCokgrO7fA0KTs4KRpdm6ELf7SdFEosFKq1UI2FJRvpmgvVZijUT0mGLp1ym7tjqeDMZVKj4zIpdAPVWqSTilDociw3eEn1TDLiZTg8XpbkBngts+sMAKjV0Qvu/FcVnC+8/8fRZT/6aUNixt/8ouK4cPlfH3SACg3nx9yfPVJTLH3kySTOvfv7SYJxRX7WcFKhWgolD5ZcqFk3fiuUWOjyKQ2rfm5zdywukyoPl0mhm/n/4Un055e73kXVI8nQE7ZsGcpNdgAAdaCnJ11wwQXRWWedlbxYTo9i1Rur1a7uunxIN0CrQK0nKJ1xxhnJeyH0KNcjjzwyaT733HOT4W666aZowYIF0a233hotXLgwuuWWW5K4+eabh7svXbo0uv3225PPRYsWHXxgiiO/8Lak/5IlS6LFixcnb9xWwV5Pc5o6dWr0zW9+M1k+LYtekKd10PJpOC2DbsJWMqBQ0qBx7dImJRAKJQx6yZ5Cl0TZE6R0KZTd3K1ma9e4FpqW5heP19EFysdemLJCBWcukxqdthOXSaFbHfQ/HicY5Twytx5JRm9/7vF2fkEhAHQEFaxVaFeSoHc96IVzepmc3gGh5vPPPz8pTOsJSipcq10Fe70bQqG3X6uArsuIlEQoodCnCvtKTObNm5e0z58/P0k0lHhY8pF8LlocTZh1U3TydfOTA5OaT8rdkISSCw2jaSlRUDLQ19eXJBjnnHNO8qI8PTpWBX4lOHYTtpZXSYESCUsKLKnQp/pbAqJm9dfw1q5I35dhSYVdNmXTite74wuUKjhzmdTotJ0UbrMBXaVnWn6CCvbV1BrUI8kAADTZ2WefvenMM89M3l6tl8p97WtfS0IvmlO7kgnVXOhMvgraqkVQUqHuSjbUrkK3ag6UEKhWQomFCudKSvTYV9VcfOtb30pqJSzuuOOOaNmyZUmo2Wo1lGSo5kKJhRISTVfTUJKRrslQ7YreTaF2zUfzU5JgtRJKAKyWwt5loXZLNtRN77pQd4WSJKut0DjqZu/C0HiWfKi/2jWsurnN2LEOXCa1rVCSRtAzGxcmCQaXSQGVI8kAgA4TF9THqTbAEgzVSuhSKV36pMullEToxmclCaqJUAF98uTJSZKhxEPtSihUQ6HkQmGJhn2qtkL97TIpdbvtttuSpEOhhEKh7uqvJENJhearwrxqWFTYV8HfkgAlFunHyKqbEgcNo2RBoXEtGdCn9bPkQgmKmi1ZsOTDEoz0NNRsw2sYDa9liOfdFZdJvfPxP0U79rxVVezZ93FDo1m0nR5dewHP2geqQJIBAB3m9NNPTxKM4447LjrxxBOTUC2G7rP4+te/Hk2ZMmX48iA1a9hjjz026adLltRPCYRdHmW1Dro8Ss2WbKhWwpIL1Vak78WwYey+C0syVGthNRS6BEqhpMKe9mT3VyjBUKKgJEGhJMGSAS23umkYDavl1XT0qf4WlkxoGI2j/pq+LpdSNw2jaVhC45KWjr9M6sk/Trvz0ecvXFl+TF7dqHjshcmDjQwlEaXiX1657N/dZgNQIZIMAOggxx9//CYlF7rvQp8K1WYolGwoAbHLopRcaLgvf/nLyWVUurxKhXclEnZvhSUbllCoWZc7qXbCkgjrpyTjrrvuiu68887h7hpeoSRDiYQK9yrMq1CvAr8eJ6vkwhILhSUN6q+w5MASCwtLJNRdiYKGsem4hCH5VHKiUHcNo2E1rj6V8OhGcktQ3GYEANSIJAMAOkScMIxTbcVXvvKVpObiqKOOShIINetyKSUYqq3QJVNKMHQTuELddMO1CtnpS6SUHKgmQ0mFJRoW1s9C7arRUKKhULMSEUtIlGSoFsOSCtWKKFSrYJdLWYJg7UoCFOnuCksalEBomRXqr09LOJQ0aNr61PgKm5666VPD2uVWGjf+5Lp7AMgISQYAdAjVSiixsJoLJRzWrsuhFEouTj311CSx0KdqNJRgqKCt2gMlDEoi0pc6KUmwZEJJg0LJiLprGNVc6EZvfep+DCUo6mfj6T4LJRkq6Ktgny7kKzlQqNmSgVAioU9LPmx4TcNqO9RsiYSNr3VSEqHhbdpqVnf117B26VQ8Do8nBYAMkWQAQAcYP378JtVWKOx+DKup0GVSSih0OZQulZo0aVJyL4bdeK1QoV2XDlnyoERCl02lEwuF+llNh+6/sMuj7ElSatanhrUnRynSNRnppMBqIixBUD8V/NWs7lo2fVqioP52P4eWWQmD3fCt92nYOtk0NYxNx5ILPRpXN55reHXXtN1mBABkhCQDANpcnGCMUxJhCYQeA6uX2FnCoXdkqJ+9f0L99aQlFeZ1n4SdzVfhXUmGkgQlDfZ4Wvu0y6BUe2G1HHbTtz51yZRu7lZioiREiYYuidI8lGToiVVKZJQoqGBvBXxLBqx2wsISDiUU+lQNiIZXqFn99al+/k3j+lQ/faoWRAmGkg0bx4Zz/bhMCgAyRpIBpzcOfa9+bI9DXovjiEJj1bKYRjW0brsLjYmt7rMapaal5j8tNGbuqDjsOxkTRy3rgE6jJEJvyNajaVVDoSdE6VMJhxILXQ6lM/cqaNuZfyUZOquvgr0K3SrUW7MSAdU6KGmwmgslFHY/hhIKJSFWi2FPlFJyYTUX6fdgKNHQJVMq4Kugn74EypbHkgBLIqyfwmohFLoUKj2u2tWsULMNZ+2WuFhSYWFJTTzMVLcZAQAZIsmA4xee66EVkozPxpHV/utPq55Jxp1xPFRozHQd0O7iJGKTEgpdAqTLf+y9D0oWVAOg0Fl+1SbYk5QUKvSrZkGJgNUwqCCugrnGVXJgl0ep1kK1GVaToYTDaipU86Gwy6rUrGlqHlbDoGnrMimrMVGSYAmNQt2USFjiowRBw2hZLPFQs7pbgqBPjRNKQGzamm466bAEQ8PY9N1mBABkjCQDzmhJRjpBUGH6/47j2Ti0L5wRR9o9cai7369YkqHh7Ey99Z8eh9q1TDpzb1TAtvmm79P88zis1kW0PhpG0uumbhZpKsRPKjQmtKzPFRoTA3HofUylpmVJRrHtYmzdQsNYv/Vx2Hpr3ja81tGaFWLzXRWHutk0rX1K0nZA6Pux7W80Td4/1eriQvJ8FaB1pl6FeEsa0oX+dG2E1UjY5U52KZQlEGpXf42vJEQJgiUJSjosoVAthYW1W6KiZMYSCoXaLZTwWK2C1Zyo0G/Lr/5qV+Ffn+qvYZUw2PDWTe2WMGh4SzZsXOumxEWJl923YS8BdMkHl0kBQJ2QZMCpNMnQPqBC8J+5ZjuDr34/LDQO97PxSiUZ6QL9r+J4odB40PTVbAVjFZ4tsSg3yShWC6Bh0uNrmPRwWi+tb6lpldouRoV5f3wbRtvH1vt/xJHupyTICv3lzNdvL+f7UT/Nw0840KqUSFikEwpd0qSEQkmDwu6fsCRDnxrGaih0ydPdd9+dXAKlmgolHGq/9957k26apt1bYcmCEggV/i0JUVh3G061GZaY2OVS6SRBzXZZkyUV6m5hiYMNY2G1GxpGy6D52rRtOgoNp2lofEtWrHs8XS6TAoA6IsmAY4VyP4yfZKSTBfVL1wKkpfuVSjKsEBxKAlTotSRE/RYWGkeoNcmQ9PBWY6Dl0jg2/mhJxmjbxWol/BOooeXSsLbeoyUZ6fmq3a+VKef7Se8D9n2gVcXJwiYlEEoKlDToU8mChV3apGF074QeMavPb3/720nYuOmbupVQWNiw3/3ud5Nkw5IQDadQsqLEJn1plBX+rSCvZks6LBFQYqB+6cTChlcyYJc1aTiNa0mMxlc39bfEQZdWpWsqrCZD07NxNU9LQDSO9XebEQBQJyQZcNKF55B0gqBCbLoQmi6oqrBvBVUL65eeRpqG0Vl3SRd002EJhBWwLeysfBZJhl0yZZdGqUbFzuzb/RClplVqu6QtjsOWX2E1JP5ypddptCQjPV8/6Sj3+xENm96OaEVx4X6FEgslCJYQ6NMSDDUrcfCTBw2nZMESDqutuO+++6Lly5cnCcU999yThBIMG06f3/nOd5JQsyUaatb4GlbLopoU1VrYZVP61GVUCrVbkqFQQV8Fft1HokuYlCgoeVA3SySsJsPu01A/SzDUrGREyYeSHE1fNRXqroRF81CzxrdxbDy3GQEAdUSSASddeA5JJwjFCtNW+LWEQTSsFWLT00hLj1MqCfCl5+cnGVaYlnKTDA2naWg5tX6ahsazdskiyUhT8qDaitByVVKTUU6Skd5eJv39pBOQ0PeEVqHLo9JPblKocG+XSamWwS6DUpJgNQ+WGCisnxINJRVKFhTWXZ+q6bAnStnlVUpWNI76a3qaj4bT9PWpYbRsVougREOXSulTlyypkG+JgBINq6nQPRlKEjSMXU6lTw2jULPVgFgSoloMhV1SpU+FdVfthpIYJSkaXp9xMjPObUYAQB2RZMDJMsn4izjEbjyuJMkQDecX5G0aas4VGj9zXBxqFy2/mjVvGyfdr5wkQ9Ljid9ea5KhxEHj2/pqHEseNLzdk2HrZtPLMsko9v2oWeOlEzS0GhX2dY+Eag10uZISDiUYdl9GOtFQEqCkQJ+q1VCzJQdW02GXSymxUJKh2gp9KpFQNyUg999/fxLqZ0mL+tswmm66hsMuydK0tax2T4aSCKvJUFi7Egir5bAaDktE0kmFEghLTtTNJQ1JWLJhl1rpU8NYgqJPdXebEQBQZyQZcLJIMsQKx5qWCrPps/HpaaRp+HSSIemnS1mh2PwuDvVLP4FJbN4qqFvSIf662dOV/HmK1SwYLbNdKiWlplVOkiHj49A4Cv/JT6GnS0k6yZBS8y2WZEix70fTT9cE+euNVnDDDTesUq1F+glSlmT476WwTxtWSYlCw9vN4ap1UNKhhMCSBiUYSiysXf0V6q7LqXRplSUiSixsnPS9G1ZbolACYsmGLpuyp0hZzYSSASUSShLs3golD+nkwD41vCUZSlB034VCyYMlHVaboWaFkhMSDABoPJIMAGgTixYtWhAX1pOIE4QFt99+exLqfvPNN68cLeIkY2Vc4F8ZF/yTiJOAlXFCMSLiZGHl97///ZUrVqxY+cADD6xevnz56jixWB0nFqvj/qvjcVbH4ybN8XBJaJg4wUjChtVw8TKujhOc1XFysXr27Nmr4+RidVzgH4wTgsE4mRiME4DBOGlIIk40BuNEI+mu/hpOYf1tHEWcjCRh04gTlUElEVaDYYmI1WYoiYkTDy6TAoAGIskAAAAAkCmSDAAAAACZIskAAAAAkCmSDAAAAACZIskAAAAAkCmSDAAAAACZIskAAAAAkClLGioNNzoAAAAAjHTISRMHQ0lEqfjs+Il6KzEAAAAAAAAAAAAAAAAAAAAAAAAAAAAAAAAAAAAAAAAAAAAAAAAAAAAAAAAAAAAAAAAAAAAAAAAAAAAAAAAAAAAAAAAAAAAA1Mtn45gex+/iiFKxPo7ZcYyJI6Q3jtfi2B3HEerQJkZb7uPieDYO2w7PxfFf4miVddX39YVC47B2/S5KCX0PfxpHO/vzOLbGsT2OrNallbZTaN9Edjrxdw4AAAAAAACMaiAOOwH64zj+Mo40nSRdFYcNMymOtE48sXZnHFrXF+L4C3VoITpR/Ks4Qt9Fp2nl76EWWVdmtMp26qZ9s5mozAAAAAAAAEBXSZ94XKAOo7ATsP6Jyk6uzChnuzRaN1ZmtOL3UIt6VWY0eztRmdEYVGYAAAAAAACgq9gdGXocTbFHSJWj1Im19F0fxeKHcaSlT4gWC/+kbTXjhJa72PLaSedS63pUHFbZ44eGD53crXT7FBve1q3Y8qUrokIRWh8bR/3Sjy/yo5wT6JXOf7TvYTR/Fkf6biI/Qusr1eyvUul3n67M+FEcofEUo23bcrZTo7bFaPvmaBU4tu9qnPT20rZVt7+NI72N0/9b1a5jMdX8n0gj/gOk1P9Q1tsCAAAAAAAAaLqsruYudmLNTtIVqyxJn+BOn+Sz5XooaStPNeOUOiFYbNuMtq6hE7XFTtJWu31KXf0eWr5Syybp5Uuvb3r+oX3E+o92crTa+Us1++ho21VC0632+yi1fsW++6y2rSm2nRq9LUrtmzZOtZUZoWlKtetYig1fyf9JNftBtdvZplfsfyjLbQEAAAAAAAA0XTUn7EKKnVjz/bc4To7jojh0NbqdpCt2os76WejK7DPiCKllnNByFzvhFxqn1AncSpS7fSqpzEhvl1LLZieM0ydiqz35nFbL/KXSE6/p+ZUTxdZNyvk+qv3us9i2aaHt1OhtIfWszAidoM9yHdOKTbfY/0mj/wNs+dL/Q/XaFgAAAAAAAEDT2cnF0Soh0kJX/oZOrEn6imrF7+L4Xhyz4zgxjv8Rh52sK3UC8Itx5OPwH3VU6gR3OeMUW25pRGVGtduHyoziyp1fSDXfR7tUZjRiW0gzKzMqXcdKjPZ/0uj/AFvv9P9Qo7YFAAAAAAAA0BTpk2lT1KEInayzE6b+yf9qT6zZ9NLDpE8KFjuB7Z/crGYcCS23qaQyQyp9xEy120dKnTgNLV+pZZP0sqTXN6sT7tXOX4p9D6Wk5/cX6hDgV8rV8n1U+t1LIyozpNHbotS+aesc+r2JLYc/bqnKDKlmHUup9v8kvRzl7Ae1bGcbt9T/UBbbAgAAAAAAAGg5doKrVOjEWajCo9iJtXRFSSgWxhE6aZg+mVgs/BNx1YxTbLml2MnhUuPYyVp/vorQ8NVuH0mf5FTYo8KKLV+pZVOUWp8sTrhXM38p9j2MZrT5Kfxp1vJ9VPrdZ7ltpdR2avS2KLZvSqn/mW/FEVrnUMWBr5p1LKWa/xOpdD+odjtX+z9kUcm2AAAAAAAAAAAAAAAAAAAAAAAAAAAAAAAAAAAAAAAAAAAAAAAAAAAAAAAAAAAAAAAAAAAAAAAAAAAAAAAAAAAAAAAAAAAAAAAAAAAAAAAAAAAAAAAAAAAAAAAAAAAAAAAAAAAAAAAAAAAAAAAAAAAAAAAAAAAAAIDWcMj4iY8fOn5i1Ig45KSzNrjZAgAAAAAAAAAAlCdU6VDPcLMFAAAAAAAAAAAoj1/Z8M4vL8k0/Om72QIAAAAAAAAAAJTHr2wIVUjUEv703WwBAAAAAAAAAADK41c2hCokagl/+m62AAAAAAAAAAAA5fErG0IVErWEP303WwAAAAAAAAAAgPL4lQ2hColawp++my0AAAAAAAAAAEB5/MqGUIVELeFP380WAAAAAAAAAACgPH5lQ6hCopbwp+9mCwAAAAAAAAAAUB6/siFUIVFL+NN3swUAAAAAAAAAACiPX9kQqpCoJfzpu9kCAAAAAAAAAACUx69sCFVI1BL+9N1sAQAAAAAAAAAAyuNXNoQqJGoJf/putgAAAAAAAAAAAOXxKxtCFRK1hD99N1sAAAAAAAAAAIDy+JUNoQqJWsKfvpstAAAAAAAAAABAefzKhlCFRC3hT9/NFgAAAAAAAAAAoDx+ZUOoQqKW8KfvZgsAAAAAAAAAAFAev7IhVCFRS/jTd7MFAAAAAAAAAAAoj1/ZEKqQqCX86bvZAgAAAAAAAAAAlMevbAhVSNQS/vTdbAEAAAAAAAAAAMrjVzaEKiRqCX/6brYAAAAAAAAAAADl8SsbQhUStYQ/fTdbAAAAAAAAAACA8viVDaEKiVrCn76bLQAAAAAAAAAAQHn8yoZQhUQt4U/fzRYAAAAAAAAAAKA8fmVDqEKilvCn72YLAAAAAAAAAABQHr+yIVQhUUv403ezBQAAAAAAAAAAXalvfm/PQH5qb//MOa7LqPzKhlCFRC3hT9/NtqRkHQZyu3r788tdJwAAAAAAAAAA0G56+mZ/QZUWvQP5wTiidKifG2xUfmVDqEKilvCn72Y7qp6BWUuSdRnIbR7Tlz/cdQYAAAAAAAAAAK3osL4ZR+ouhd6B/FC60iIUqgRwo5XFr2wIVUjUEv703WzLcmjfzC8md2gk65Wf6joDAAAAAAAAAICW0ze/t7c//5BfcRGIITdG2fzKhlCFRC3hT9/NtiLxeq1y67fKdQIAAAAAAAAAAK0qdWL/oKjm7gW/siFUIVFL+NN3s61Y4T0aWs/crjF9+S+5zgAAAAAAAAAAoFX0TMuNG37kUn9uQc9Abnq6IiOOqu5a8CsbQhUStYQ/fTfbqnyu75rP6x0ayTao8HFaAAAAAAAAAACgTgrvjXDvyuiftcJ1HtYzLT+hlrsV/MqGUIVELeFP3822JvH6LnMVOIOq4HCdAQAAAAAAAABAI+kkvU7WFyoxco/rvRmuV6b8yoZQhUQt4U/fzbZmqryxO1Xiz0muMwAAAAAAAAAAqDu97PvAezHW1/vOA7+yIVQhUUv403ezzUzPQP7p4QofAAAAAAAAAABQXz39+Qd1Yl7vhejpm/0F17mu/MqGUIVELeFP3802U+mXg+uxXK4zAAAAAAAAAADIil7obSfjD+ubcaTr3BB+ZUOoQqKW8KfvZpu5MX35w4dfDh5vT9cZAAAAAAAAAADU4sAdBUlFRlPe++BXNoQqJGoJf/putnXT259f7rbp+nq9ZwQAAAAAAAAAgI7XMy0/Yfjl1f0z57jOTeFXNoQqJGoJf/putnWlu1uskkjb2nUGAAAAAAAAAACjGdOX/1LvQH6oUIkxa4Xr3FR+ZUOoQqKW8KfvZlt/ffN7D7wcPP+Q6woAAAAAAAAAAEL0Mu/egfxg4cR67vFWevyRX9kQqpCoJfzpu9k2TM9Abnqy3Qdyuxr1UnUAAAAAAAAAANrG5/qu+XzvQG6NO5m+Ru2uV8vwKxtCFRK1hD99N9uGSr8cvNmP9QIAAAAAAAAAoDX0ze/VHRiFSoz8YCvfEeBXNoQqJGoJf/putk2hR3u574SXgwMAAAAAAAAAulfqhPmQ3pHhOrcsv7IhVCFRS/jTd7Ntmp5puXHu+4nU7DoDAAAAAAAAAND59Piiwkny3K6eafkJrnPL8ysbQhUStYQ/fTfb5tKdM/b4rxZ5ETsAAAAAAAAAAHXTO5CbNHyl/0B+quvcNvzKhlCFRC3hT9/NtiUcqIBK7qI53HUGAAAAAAAAAKAzHNY340jdhZFUYvTnFrjObcevbAhVSNQS/vTdbFuG3meiyoxCZVRuuusMAAAAAAAAAED70snvnoHc5kIlRv5B17lt+ZUNoQqJWsKfvptty9F3WajQyD/Ny8EBAAAAAAAAAG3pc33XfL53IL9eJ7zjWNUpJ7z9yoZ6h5ttS0q/HFx33rjOAAAAAAAAAAC0OL0suj/3uDvJPahKDdenI4QqHOoZbratK3k5uKu06s8vd10BAAAAAAAAAGhNvf2zVrhKjCE9Xsp17ig94yeOO+SkiYOhioeMY+iz4ye2zTsp9B4Uffd6pBgvBwcAAAAAAAAAtBw7ka0XfOvRQ64zukzh5eDuJe8D+amuMwAAAAAAAAAAzaMT1u5ODE5eY1hvf/4ht0887ToBAAAAAAAAANBYPdPyE4avwO/PLXCdgWGHDcw8o1DRlds1pi//JdcZAAAAAAAAAID60knp3oH8UHKSun/WCtcZCCu8HHzQVWosc10BAAAAAAAAAMhe4V0I7qR0f+5xnaR2vYBRpV8O/rm+az7vOgMAAAAAAAAAUDudeO4dyK1xV9av4UQ0qnVo38wv2qPJ4s9JrjMAAAAAAAAAANXTHRiFE8/5Qd2Z4Tp3vUPGT3zo0PETo8bEWWvcbDtGvD+tcvvVKtcJAAAAAAAAAIDK9Pbnl7uTzUO8uPlg4UqH+oWbbUfRnRmFfSy3S3dsuM4AAAAAAAAAAJR2WH/+WjvB3DMtP8F1hsevbHjnl5dkGv703Ww7TuERZoX3sOidGq4zAAAAAAAAAAAHU8VFoRIjeUHzdNcZRfiVDaEKiVrCn76bbcfqGZi1xO1/g7xYHgAAAAAAAAAwgh4hZS9k1gll1xmj8CsbQhUStYQ/fTfbjjZiX+SuIAAAAAAAAACAXuatq+CTq+H78w+5ziiTX9kQqpCoJfzpu9l2hXifLLwcnP0SAAAAAAAAALpT4R0FuTXJ1e8D+ad5pE91/MqGUIVELeFP3822a8T75tSkQkPvbumb/QXXGQAAAAAAAADQ0frm9/b25x4vnCDOD47pyx/u+qAKfmVDqEKilvCn72bbVVTx1jOQ25xUvPFycAAAAAAAAADobL39s1a4SowhvZfAdUYN/MqGUIVELeFP3822K/X255e7/Xc9dxIBAAAAAAAAQIfR1eyFk8C5XbxQOVt+ZUOoQqKW8KfvZtu1DuubceSBl4PnxrnOAAAAAAAAAIB2deB9A8l7Maa6zsiQX9kQqpCoJfzpu9l2Pb3nJdmv+/MPuk4AAAAAAAAAgHaiuy+Gr17nHQN15Vc2hCokagl/+m62iPUM5Ka7yjo9No13vwAAAAAAAABAO9B7MHRiNznB2z9rheuMOvIrG0IVErWEP303WziqxLCXgx/Wn7/WdQYAAAAAAAAAtBqd0O0dyA8WKjFyj/Ny5MbxKxtCFRK1hD99N1t4DrzcPreG/R8AAAAAAAAAWknf/F6dvLWTuJ/ru+bzrg8axK9sCFVI1BL+9N1sEVB4OXjy2KlIza4zAAAA0FxHzlu64YjrF+8dO29J9NWbvhVNuueHHRFn3Lm8reOom5ZG+k4KsXjvl+fd/l/dVwYAAIAM9fbnH3Inbgd7+mZ/wXVGg/mVDaEKiVrCn76bLYpJV/DxqDUAAAA009h5S8YdOFm+JLrx5w9H7368LUJzbXz3/ej0O+4f/l6OmLNk9dj5S0iqAQAAMtYzMGtJoRIjt0vvyHCd0SR+ZUOoQqKW8KfvZotR6P0Z+p3ofRq8HBwAAAANd+T1i1fZyfJjbr4zWr3+ZXcqHc30wKr/HY1bcMdwRcb/mr1wqvvKAAAAkJGegdx0dydG1DMtP8F1RpP5lQ2hColawp++my3K4N4lk7wQv2cgT44CAACAxjhi7uJNdrL89Dvv526MFrH0kSdHVGRwNwYAAEC2VHGhuzB0QlZXm7vOaBF+ZUOoQqKW8KfvZosK2MvBewbyT7tOAAAAQPbG8liplqTHSk2690fD3wuPlUI3eP61e877/Ru5+/7xxf41j66dsqnd4rG1k1d1XLwwZYXiiXX99z7/znWXRdGz/8V9XQDQ9vQIKbuqvHcgt8x1RovxKxtCFRK1hD99N1tUqGdabpz7LfF4NgAAAGSPx0q1Jj1WasLie4YrMsbOXrTAfWVAx1JlwOMvTIkU//ryzGjn7g+iPfs+rnvs2PNWx8VHn2zIJF56/4fRP627JPlOFI+snczjIwB0BL3Mu3cgP5iceO3PPe46o0X5lQ2hColawp++my2qkbwcPL+eCkIAAABkisdKtSb/sVL/c96Sce4rAzrS42suGJeuyPjdK9dFu/dudb8INMvGrT+Onlh30XBFxsNr+vgvQks6ZPzEh/wTkQRx6Piz1rhdZITP9V3z+d6B3Bp3onWN2l0vtDD/+w1VSNQS/vTdbIs6tG/mF3X3gfYjvSxeJ/BdLzi9/TPnFLZPbjO/MwAAAFRtLI+Vakn+Y6WS4LFS6HB6fJGdLNeJ8zeG/sn9ItAs2z99M/rDlu8MV2IoVq05j/8itCz/JGSzo3/pPdGmLe+4X1QUDW5+J/rLi6+J3v3wo+jTvXujM+cvCY5XTfzJqedFR145q+J+3RJuFynQ1eL9uccLlRj5Qd2Z4fqgQrra3m3HsiJ5h0KNJ/v97zZUIVFL+NN3sx3VmL78l7R+w+sb72PsWwcU7oCySh9eDg4AAIAK8Vip1vTzf3uex0qh66Tvxvjnl66JPt610f0i0Cxvb/unaNUfLx+uxHj0+cmr3dcFtCz/JOQT69Y1LbZ89FHyW9q1Z0/07KZNw91/u359tHvv3mj//v3R86+/PmKcauLJF1+MPtq5M5nXH7dsKbtfp4e/L7hdZPjFxHEM6eSz64walFuhcdjAzDPcKDXxv9tQhUQt4U/fzbYi8b51eGpfU6zXi+Vd767W259/yG2TVa4TAAAAUBqPlWpNPFYK3YbHSrUmHiuFZjjwstjCSS61u15l809Chk5yNyqsMuOtoaER3anMaEz4+0JPf25BYd/K7eKkcnZUIZQ6OV0kcmuyfPSS/92GKiRqCX/6brY1KTxmqXBXQhxDane9upJ+g27f2KXHdLnOAAAAwEhjeaxUS9Jjpa7/u18Nfy+KAwkgQRDNjv9+3WL3a+1sPFYKzeRVZvhRVuWGfxIydJK73rHx3XfdL2qkffv3R0+99FLJyoxi46a9v23bqMOrAqVUPxv/6VdeibZ/8onrc7DQMv5+48Zo7759Sb+de/a4IQ/mV+I0Omwf6Dlz6vB+xKNtaheovBhSRZHeg3BYf/7aVPe6bfP0b1wRqpCoJfzpu9lmxp3IL7xwXtGfX96V75FIvRw8edcIAAQ09n1o4XdsAQCahMdKtSb/sVJHzFnCo1zQ8drhsVJ2kqFbZPFYKdtmBNGACFZu+Elp6CR3o6LSOzOs8kEVBKs3bBgxjsIqESR9l0W1d2aMNj9FaB3SyxGqsEhXdmRx50m1kewDp0yKevuujXrOnpb5CelukbznYMTjknR3QW7ZmL784W6QEVIVGuvr9SJs/3ceqpCoJfzpu9nWRfLy8APvb0neKdJtdyocuGsqP1ivfQZA+/L/k+sdbrYAgGbjsVKticdKodu002Ol7MRCN+CxUmgFo9yZYTF8FbgbbQQ/IQ2d5G5U1PqYqX8bHIxefPvt6NX33os+2L59uAJBaq3MsGUol91VonGtsiLdLR3pafvL08jw9wW3i2AUlVZehNT7LgP/uw1VSNQS/vTdbOtO2013KNi27xnIbc7qPSOtLqnUcY/h6pZ1BlAe/z95+fLXMw1/+m62AIBmGctjpVpS6LFSY+cv4VEu6GiPvXDhfDtZrhPn//Hm/e4X0ZrsZEKn47FSaBVFKjNKVl74/IQ0dJK7UVFpZYaa03bs3p08UuqNrVujdW+9FT23aVNmd2bUUuFAZUZnUSWF96LqSO2q1HCDtBz/uw1VSNQS/vTdbBuuZyA3Xf+Bhe8lt0v/hZ1+58LwXSrxp+sEoMv5/8mhColawp++my0AoBn8x0r9/Jl/TxJLNBePlUI3emzt5FV2srwVHyt17r0rD5zEGSU0bCd4b8e/1fxYKSBLrjKjosoLn5+Qhk5yNyoqqcwopwLApifpYaqpzFDYY6ZUKfHspk0j+vnDpB9FRWVGe0sqLwZyy+wq+CRavPLC53+3oQqJWsKfvpttUx3WN+PI+LtK3i9R+M7yD+m7dL07iu7MKKxnblc77ZcA6sP/Tw5VSNQS/vTdbAEAjeY/Vmrdm5uTpLJdrX3trSTaHY+VQjdKP1bqX1+eGbXqY6XKqdDolIqM1z98KOKxUuhEfkIaOsndqKj1zgzf2x9+OFwx4U8zXdEhQzt2lNUv/f6LYvx5UZnRXjqh8sLnf7ehColawp++m23LSL7TES9hz61RZYfr3RFUoR2vW/KS9OSOFE9v/8w5oe4AOo//nxyqkKgl/Om72QIAGmWs91ipiXc/0PaPlVIlhhXW27VCI/RYqSPnLX76yLmLV7VCHDFv8Yp0fPXGb90z8Tt/dfENT/7bf3e7FlAxvR/DTpYrWv2xUlKqQqNTKjL0WKl0RQaPlUIn8RNSgrBwu0jHS9670J+8UNk9niiOwlX8X3KDtD3/uw1VSNQS/vTdbFtT3/zewvc9XFk11DOQn+r6tr3UO0TWj3zsliK3xg0GoIP5/8mhColawp++my0AoBF0EtpOlHfKY6XSFRkW7Vah4T9W6tLv/yTS9YqNjk9Hibt/vSoaF+83tpz/a/bCjkmE0Hjpx0o9+eKlLfdYqVJCFRqdUJGx/dM3o6demTlcicFjpdCJesZPHHfISRMH/cSU6OoY+uz4idPdLtJxuqHywud/x6EKiVrCn76bbVvQI5r04nDbF1QZUO1j+1pBz7T8hPT6+BHv5x35qC0AB/j/yaEKiVrCn76bLQCg3jrtsVISqsiwaJcKDf+xUs+++prr01quXPmz6Cs3LR1eTl5Gjlq0y2OlSklXaHRCRYb/WKlH1k6mshIA2lHf/F49Yic+PqWuUM+v0jtn3BAdzz/xFKqQqCX86bvZth1VaPUM5J8e3k/6c48f2jfzi653yzro/SAlQndruNEAdCj/PzlUIVFL+NN3swUA1MvYeUvGpSsyOuGxUlKqIsOilSs0Qo+VenvoQ9e3dax78+1o2gN/M1yRoZeRU5GBaoUeK9WOFRlGlRidUJHBY6UAoI31ze89rD9/rXd1eldVXvj8E0+hColawp++m21bS95B0T9rRWofGtRdD653S9I+rkdJpZb54OjPP+QGB9Ch/P/kUIVELeFP380WAFAP6cdKHT3/9ujav/7/RW99vC3T+GDnJw2Pf3lpMFxYDYSGDU2jWOzc82nd48GnnxvxWKnp3/+JO6XYWu574l+i4xcuG15OHiuFWqQfK6UT5+9te87taWiW0GOlqMgAgBYXqLzQ1fXdXHnh8088hSokagl/+m62HcW7u2dI7a5Xa3K/i9Qyu8jtckMA6FD+f3KoQqKW8KfvZgsAyNrVv1h11DELv71o7A1LfnDE3EUrk7h+yeqqYu6SXWOvXxJZDCz/q2j6Az9pSlz8vb+JjrzpjuH4H7MXJWEFVmtPxzdu/250xh33tVRMvGt5dOPfPxq9tOVdd1qxtfBYKWSpEx4r1Wn8x0r904uXRas3zKg4bPxGxK//Y8on+/f/4P/ldisA6Bp6YXNczh1MnaBdo3cfuN7w+CeeQhUStYQ/fTfbjqU7NOL97sBjnfpnrWj192yM6csfbneatPodJgBq4/8nhyokagl/+m62AIBWNHbeknHDJ7PjuOwHP4ne3tp6j0ISK1yjNnqslN6pYt85j5VCLTrtsVKdwn+s1K7drVep+tGujdH/2XRr9I9/mJosI3eNAOgmVF7Uxj/xFKqQqCX86bvZdoWevtlf0Ls1bN/UXUFjOvhl8gBan/+fHKqQqCX86bvZAgBazZHXL16Vrsh45LkX3Cmm1mQFalTv5l88Fh1z84GXkf/PeUt4XAGqxmOlWo8eK/X04PXDlRi/f2VRS1ZkbHzv59GTL146vJy8jBxAp1NFRVyOTb/QeFAVGq43KuSfeApVSNQS/vTdbLuO7s7oGZi1xPbbwqPPcpNcbwBoCP8/OVQhUUv403ezBQC0kvQLwxWtejdGmhWiUR0eK4Us8Vip1qPHSq364+XDFQRvbP0X16e1rHl96fDdGAruxgDQiQqVFyNeXEzlRYb8E0+hColawp++m23Xc3cUuXdW5HapokPvsnC9AaAu/P/kUIVELeFP380WANAKxgYeK9UuLBlEZUKPlXK7A1Cx36y98Gu/XjvlFTsRrZPSv3/1+mjNG4vbIn741M3RV26dm3xat/XvfKft43evzBpRQfD+tvXuH6B18FgpNMqYU845/NCTJq7wE1Oim+OsBw858Zy6PibHr7zQFexxTHe9kTH/Ow5VSNQS/vTdbJFyWN+MI0dU2PXnHxrTlz/c9QaAzPj/yaEKiVrCn76bLQCg2fzHSj336mvuFFN7sIIyysdjpdCKHnthygo76a54c+tTbo+tv3/e8Mrwf4nFSUuXJ91RP+s2PzDiHR48Vgr15CekBGHhdpFM9EzLjYuPIavsWKLKi8P689dylXpj+N9tqEKilvCn72aLIlSJ0dOff9B+D3GsV2WH690yDhk/8SH/uyWIzoiz1rjdvCP56xuqkKgl/Om72QIAmqkdHyvls8IxysNjpdCK0o+nUuzc/Z7bYxsjVJnhB5Ub2eKxUmg0PyF9Yt26psXzr7/ufgkH7NyzJ3rqpZei3Xv3Rvv370+GCY1baax7661o77590R+3bKmoXyeHvy+4XaQqVF60Fv+7DVVI1BL+9N1sUY74N9HbP3OOHkPlfi9DrXKXkv+9EkQnhdvNO5K/rqEKiVrCn76bLQCgGca28WOlfJY8ojT/sVK23QiCqCwO89pRGT1WSu9TsUoMPVbKHZqAuvIT0tBJ7kbFlo8+Sn4PQzt2jOj+2/XrM63MePLFF6OPdu5M5uVXWJTq1+nh7wtuFynLmL78l/TYnNRxYKinP7dAL0R2g6CJ/O82VCFRS/jTd7NFFfQINlX+Hfgt5ZY163fkf6+5jR8TRNuGvz+73bwj+esaqpCoJfzpu9kCABqt3R8r5dPV0goUx2Ol0IoeWzt5lZ3QVnywfYPbYxuv1J0Zh195Y3TrP/wm+nBH4aSfsf4on/9YqYfX9PFfhLL19s9aUfjd6are3LIxFT6D3U9IQye56x0b333X/RpG2rd/f3JXxmiVGU+/8kr07scfJ3dxpG3/5JNow+bNI4YtNq+3hoZK9ktPQxUeg++9N2J+Wrb3t22LVm/YMGJYxe83bkzu9ND6/O7llw8ad1fc7C9nM8LfF9wuEhTvZ1RetBH/uw1VSNQS/vTdbFGjQ/tmfrFnIP906ne2St1c75Ky+C3632voBDGRfVz36sfRsjd3BPu1S7TiOvj7s9vNO5K/rqEKiVrCn76bLQCgkTrhsVKoDI+VQitq9mOlfOnKjGKVFz4bHuXhsVKo1YHKDD/Kq9zwE9LQSe5Ghd2Z4VceFKvMsEoC8SsSVMGhygzxx6v2zox0P1VA/Ptrrw33swoVsUoY65deTnn7ww+HlzW9nP54jQ5/X3C7SCLej7zKi8L+ReVFe/C/21CFRC3hT9/NFhnSby3+DS5P/c8P9kzLT3C9D9Bjq9yLxnsG8jW9c8v/XkMniInsQhUAr32yNzke/Or9T4LDtHq08jr4+7PbzTuSv66hColawp++my0AoBHGdtBjpVAe/7FSR8xZwqNc0HSPr7lgXLoS45mNi9we21yquBit8sJnSTZKy/KxUrbNCaJ0hCs3/IQ0dJK7UVFpZcZoYeNJumKimsqMUuOkQ8snuvPCKiysMqPY8hdbzkbHiH3hlEnRyIqy6u78QWsY8d3GEaqQqCX86bvZoo70Dpr4tzk0/PvsnzlHv8/Cb9V+t3HEv2M3SsX87zV0gpjILqjMqG/4+7PbzZtKdzTqN9rTNzvTi5n8dQ1VSNQS/vTdbAEA9dZpj5XC6HisFFpRKz1WqhJbPvx4+HF26bDkOdRP44DHSiFbxe/MSEdujZ7D7kYZwU9IQye5GxXVVGaoosDubCil1sqMdIVDOdJ3WaQfMxW686IVKzN6v3m59hsqLzpE+rtVhCokagl/+m62aBD3wv31B//3D8f6al6+73+voRPEtcaKLTujPfF/Y8i+uHPohPhdb+4oOo5ovB9u3hkcR/0++PTAnXK+Zz7eM2I8RTXL+Jutox+XNuz8dNTh08tzxxvbo827iy971uvdKuuQVfj7s9vNmyqpzPB/rxlUbvjrGqqQqCX86bvZAgDqicdKdR8eK4VW1GqPlarU2tfeGln4LhEaFjxWCtkLV2YUr7zw+Qlp6CR3o6KSyox0pYNeGF7qXRVSa2VGuru/fKNFO1ZmKNwugg7gf7f1DjdbNEjwhOhBkds1pi//JTdKWfzvNXSCuJawk9+f7o+iW1/bPqLf3Fe3Rdv2xj1i6cqCUuMo0uOlT6KnK0BCJ+7TJ/3TJ9NrWUZVHtwwuG3EOIr0sqTHK3VXw2jTVKzZ9mkyTJbr3QrrkFX4+7PbzZuqrN9uFZUb/rqGKiRqCX/6brYAgHo44obb5qcrMXisVOf7+TNrovFL7jlQiTF3yeYj5y5elVUcMW/xinrEUQvvvP2Uux6YcenPH+eK7Q7Uqo+VqkY5FRpUZGT7WCkgrVCZUX7lhc9PSEMnuRsV1VZm6JFOz27aNDx8+j0UptyKiVL90pUOWpb0S7s1nt6FYdLzozIDzXbo+LPW+N9vveKQk87a7GaLBujtzz0eKnsVi56B3HQ36qj87zZ0grjaqOZxRMUqD/zQnRSSroCwk+/lVILYtLN6ZNK9b+2Ifv7eruiJrbujP+78dLgSQNLTLTa/9LKVo9b1DkUz1yGrsP049Ltokxgs9z046d+tIlQhUUv403ezBQBkjcdKdR/djZF+rNRv1r6Y3IVTbmgfaVQ8G8czcaT30f81e2FNL+1Da2rXx0qVUqpCg4oMHiuF1uYnpM2Mn67+1+Q3s+LXT47o/p9OPz9698OPok/37o3OnL9kRL/+pfdEazcOJuOJhlm15oXohFk3Jf1v+eufJt0HN78T/eeJFw6P9yennhf98nfPJP0k3b9UP+t/+08fijZteccNcfB80zH2ilnRjk8+iXbt3hP9P1MuPai/rZ/M+t7Kg/o3K9wuAqCN6YpuPYYqiYH8VF0JrmbXuyT/PyF0grja6OTKDJu/eW/Pvmj9jk+j//3Rnujv3t0V3f92ZXc1lLveoai2MqOV1iGr8Pdnt5s31Sh3ZpRdeeHz1zVUIVFL+NN3swUAZGXsvCXjeKxUd9FLvqc98DcjHiv19lDrfucq7vkVGTwGqzO1+2OlSglVaFCRwWOl0PoaecU20T7B1fUA/P+F0AniWqKWRziVc3I+9LilSk/qV7qM5Zy0t0cpSXqYUpUn6eW47+0dI/r5w6Qf41TNerfaOmQV/v7sdvOm8iozqq688PnrGqqQqCX86bvZAgCyoMf1pE8QP/DkU8nBEZ3rvif+JTp+4bLh7/zhZ9e6Pq1JxcDpP/jJ8PIeMWfJaioyOk8nPVaqlHSFRrdXZLw59ET0zy9dPfyd81gpAADQTvwTlqETxLWGnWwPKfYy6FLjSGi8aiszFJUuo39Xg+/ZbXuGT/j774ZIVxLIq7v2Dvcbbb3Fn161691K65BV+Puz282bqtYXfRfjr2uoQqKW8KfvZgsAqBV3Y3Qf/yXfrXw3hl5HuieO0++4b3h5eaxUZ+qUx0pd/MOfJpUUn790TjTrwV9GWz782PUZSZUY3V6RwWOlAABAu/NPWIZOEBNEu4S/P7vdvCP56xqqkKgl/Om72QIAqjXWe6yUXvJNRcYB5967MolO4j9Wavr34++8xR8rdfPfPzJciZEEd2N0pE56rJRVZvgxWuVGN/nk060HPVbq1y9MHm5u/Zi857cbLn75hWjJf3K7MAAA6FL+CcvQCWKCaJfw92e3m3ckf11DFRK1hD99N1sAQDX8x0o98twL7hQTRJUYdgKyUyo02vGxUukTwQTRadGtlRsb3/t59OSLlw5XDLy05e9dn9b2zMaFw8usR2HxTg8AACD+CUuC6KRwu3lH8tc1VCFRS/jTd7MFAFSKx0qVlq7IsGj3Co12e6yUXvKdfqzU/5y3hEfPdCD/box2fayUr9idGekYu+Cu6Ff//h9ujO7h343x/rb1rk9rW71hxvAyP7J2Mo+5AwAAw3rGTxx3yEkTB/0TlwTR5jH02fETp7vdvCP56xyqkKgl/Om72QIAyjV23pJxX7lp6fN2griRoRPT7RD/9Zr5wROPCvVLD6vHcrVDnH3X93isFFqKXvLdSY+V8oUqM7q18sJ8tGtj9H823TpckfH7VxZFu3a/6/q2rpff+cXwPqrgbgwA6GyHjJ/4kH/yqX5x1ho3WwBAE/j/y6EKiVrCn76bLQCgWfxHVT31xjvRjr26rr49he7I8KNTHjnVivRYKVUS2f50xJwlq92uhg7y2AtTVqRPDr+59anCDtBBVJlRSeWF/b90Kv+xUm9s/RfXp7XxWCkA6D7+iad6h5st6q1vfm/PQG5zOq8rJ3r6cwvcFAB0IP8/OVQhUUv403ezBQA0Q/pRVX3f+3FSkbFnX2dXZFhQoZEtHivVPTr5boxa2H9LJ/IfK9UOd2N8sH09j5UCgC7ln3h655eXZBr+9N1s0QiVVWgMjunLH+7GBNCh/P/kUIVELeFP380WANBIY+ctGZeuyPiHP7wUbd61x50C6ixWmEX96LFS03/wk+FKjCR4rFTH8R8r9czGRVRkpHTif027PlbqhTe+N1yJoeBuDADoLv6Jp1CFRC3hT9/NFg3S0zf7C70DuV1W9grFYf35a93gADqc/58cqpCoJfzpu9kCABql0x4rNRor0CJ72mt4rFR36IbHStWq0/5r2vWxUum7MfRYKbcLAwC6iH/iKVQhUUv403ezRZ0klRf9s1ZYWSuJ/vxDRSo01uvuDTcqgC7g/yeHKiRqCX/6brYAgEbwHyv1+o7dbf1YqXJYwRbZ0t0YeqyU7U8KHivVmd6Lbh/35B8Hlj36/IUrD47Jq6uNx9ZOHnps7ZRI8cQfLo7+98vzot+/sjC5+r+ZoZPh1YT914T6tULYCf5KY8P7y9vysVIPr+nj/whFjTnlnMMPPWniCj85Jbo5znrwkBPP+ZLbRdDm/O83VCFRS/jTd7NFRg7rm3FkobLCKihyu+L25arUcIMkxvTlD09XaBw2MPMM1wtAF/H/k0MVErWEP303WwBAPY0NPFbqwz06Hd35rHCL7OhuDB4rhWr5j6t6c+vD8R71QbJvtTP+a5qHx0qhUn5SShAWbhdBm/O/11CFRC3hT9/NFlVSJUTPQP5pK0vFMaSXdn+u75rPu0GKSio0+nOPczcG0L38/+RQhUQt4U/fzRYAUC9HXr94Vfqkc7u/5LtSnGDMTuixUmNnL1rgdjVgVP7jqnbufjHeo3Zr92p7/Nc0R/puDN3x43Y1oCQ/KX1i3bqmxfOvv+725gN27tkTPfXSS9HuvXuj/fv3J8OExq001r31VrQ3LgP+ccuWivp1cvj7gttF0Ob87zVUIVFL+NN3s0WZegbyU+My06CVndScvOOCCgkAVfD/k0MVErWEP303WwBAPXTjY6V8VkhGbUKPlZpx04Kf33TTTSsWLFiwYtGiRStuv/32Fd/+9rdXPPDAAyt+9KMfrfi7v/u7Fb/4xS9WPPzwwyseffTRFY899tiKX//61/P/8R//cX7cnMQjjzwy/2c/+9n8v/3bv50fjzP/+9///vz77rtv/t133z3/rrvuGg61u90abWrky8Pnx3vUZrdndQb+axpLj5Wy/UnBY6W6hx410juQWzamL3+461QxPykNneRuVGz56KNknx7asWNE99+uX59pZcaTL74YfbRzZzIvv8KiVL9OD39fcLsI2pz/vYYqJGoJf/putgjQ3RWqqOgZyG22slL8H74mjkluEACoif+fHKqQqCX86bvZAgCyNHbeknHpk87d9FgpHycYa+c/Vuq4/Pzooquujq688sro6quvjq655proqquuStovv/zy6IorrkjaZ8yYEeXz+WjOnDnR9ddfH91www3RjTfemHzOmzcvmjt3bjR79uyk/3XXXZfErFmzhkP9Ndz8+fNXul0bbch/rNQH238X71Hbkn2rk/Bf0zjPbFw4oiKDx0p1l4NeAps8L72yyg0/KQ2d5K53bHw3/C6affv3J3dljFaZ8fQrr0TvfvxxchdH2vZPPok2bN48Ythi83praKhkv/Q0VOEx+N57I+anZXt/27Zo9YYNI4ZV/H7jxuROD63P715++aBxd8XN/nI2I/x9we0iaHP+9xqqkKgl/Om72SKm/2L9Jxf+m4f/q1f1TMtx0QGAuvD/k0MVErWEP303WwBAVrr9sVI+K0SjctprdNoh/Vipc6/JR9OnT48uvvjiaGBgIOrv709i2rRpSaj5wgsvjM4///xo0qRJ0bnnnhudd9550Te/+c3oggsuSPopJk+enLSru4ZLh7ppfEU8DIlPGws/VqozK1b5r2mMkY+VupCKzi50cGWGH6NXbvhJaegkd6PC7szwKw+KVWZYJYH4FQmq4FBlhvjjVXtnRrqfKiD+/bXXhvtZhYpYJYz1Sy+nvP3hh8PLml5Of7xGh78vuF0Ebc7/XkMVErWEP303266kl3L7/8s9/fkH4/9gXqgPoCH8/+RQhUQt4U/fzRYAkIX0Y6WWPLYqeaxUt7v1H36TBCqj0833P/nUcCWG4uwpFyaVE2efffZBcc455ww3T5w4MYmzzjprRH9ValhoOjac+lmlh1VoxM2r4+Bq6zZ28GOl9JLv9q/I2LXn0+i0ux6ITlq6fERYAu93V2z5sHCyD9Wr9bFS6ZMsRDdFbo1eLOt2g2F+Uho6yd2oqLQyY7Sw8SRdMVFNZUapcdKh5RPdeWEVFlaZUWz5iy1no8PfF9wugjbnf6+hColawp++m21X0B0Wvf35h1L/sxXfHQcAWfL/k0MVErWEP303WwBALcZ6j5XS3Rg79nbv3Riojf+Sbz1Wqv/yK5I7L3Q3hu6q0N0Tqoj4xje+EZ166qnR+PHjo5NOOik68cQTk88JEyZEp5xyynB8/etfT4Y9/fTTkzjzzDOjM844I2k+7bTTkn4aRtOKh5/qdm20IT1WKn3SufBYqcLJsE6hyonPXzondcK0eKx97S03FqqVfqyUXvLNY6W6W+k7M8KVFz4/KQ2d5G5UVFOZoYoCu7OhlForM9IVDuVI32WRfsxU6M6LlqrMmHB21NufC+xP+VU9A7OWxPvVpEP7Zn7R7T5oA/5vPFQhUUv403ez7Uj6T9V/a+p3MdTTn1ugd2G4QQCgqfz/5FCFRC3hT9/NFgBQrfRjpfSS725/rBSqp71GL/lOV2RMv3lxtHjx4mjBggXJey9yuVzyjozLLrssqdiYMmVKcieF7r5QBYUqJ1QxYaEKClVmWGXH8ccfHx177LHRuHHjkmZ1Uz9Vfiji8TlJ2cYeWzt5Vboio5MfK1VOhQYVGbVLP1bqkbWTqeiEV5lRXuWFz09KQye5GxWVVGakKx30wvBS76qQWisz0t395Rst2qoyIxVuF/nMZ/rm9+oKdJ20dVehDx7Y79KRvBdglYbTvqhH7rgpoIn87zVUIVFL+NN3s21/2u8H8lPjfTq9vw/2DOSmq58bCgBaiv+fHKqQqCX86bvZAgCqkX6s1A9+9yyPlULVdDrh5r9/ZLgSQ3F5Lp+8yFvvx1ClhR4FpQoL3Ulx8sknJ5UPqohQs8LuwrDuFmq3YdR+wgknDFdqWBx33HGrjznmGE4AtLH0Y6VeeOPueI/qjMdKlVKqQoOKjNr4j5XibgyYLE4W+0lp6CR3o6Laygw90unZTZuGh0+/h8KUWzFRql+60kHLkn5pt8bTuzBMen5tX5lRJl2d3jMtP6FQ6ZF7vGcgtzl0TIhjKOkfD6fhx/BInrryv9dQhUQt4U/fzbbtJPuv9skR+211lcQA0Cz+f3KoQqKW8KfvZgsAqMQRN9w2P33SmcdKoRb+Y6W+cuVsVS4klQzHHHNMEmpWJYTCun/ta1+LjjrqqOjoo49OmvWp9q9+9avDYf1sfD2GShUadpeG5hN/8pLvNtYNj5UqJVShQUVGbXisFOrNT0qbGT9d/a/Jfr/i10+O6P6fTj8/evfDj6JP9+6Nzpy/ZES//qX3RGs3DibjiYZZteaF6IRZNyX9b/nrnybdBze/E/3niRcOj/cnp54X/fJ3zyT9JN2/VD/rf/tPH4o2bXnHDXHwfNMx9opZ0Y5PPol27d4T/T9TLj2ov62fzPreyoP6NyvcLpI5VV4MV3oM5FfFMZQ+blgkJ5X78w8VKj1y43iUT3X87zVUIVFL+NN3s2152g97B3LL3B1Fhf1OlWzxvuYGAYC24/8nhyokagl/+m62AIBy8VgpZCX0WKkTzv1mcueFwr2/Igk9Lsq626Oj7G4Ltev9F7prQy/9trAXfNtLwNVNw9m03Z0anKRsY+nHSq1ef3VHP1aqlHSFBhUZteGxUmiEQ8eftcZPTAnikJPO2ux2kabRnUfJ46qGKz1SJ51HxmBPf/7B3v6Zc5IT0TwCaAT/uw1VSNQS/vTdbFuO3vVy0HuG4nbeAQOgk/j/yfUON1sAwGjGzlsyjsdKISuhx0pdOeu65J0Yinw+n8SsWbOi2bNnR3Pnzo3mzZsX3XDDDcnnnDlzouuuuy6aMWNGdO211ybv0dCn2v3Q9DQdDa9PTXfmzJmr3a6NNpV+rNSbWx+O9yg9Vqp7qUKDiozqvfDG94YrMRTcjQEAxSUnqQdykwovKE/u9EhXdKRjvSo9DuvPX9tNV9/7J55CFRK1hD99N9um03ccf+ep/UGVYbllY3isGYAO1siLVFrhwgcAaAtHzFu8In3SmcdK1ebce1cm0a38x0qdNOfW4UoMq4CYOXNmUumgCoh0qDIiHRpG46ky48orr4yuuOKK5FPv2tA0NI4qQ2x8Nx9uZW9j/mOlCndjULGK6qXvxtBjpdyuBgCo0Zi+/JcKL3TWo4VKVXrk1uiKfb3o+bC+GUe60TNVeD9D/sFG3EXin3wKVUjUEv703WwbTnfxJN+d+x4LjymbOYfHkwEAAKBp0ndj6LFSGz7eyWOlaqBKDCvwd1uFhu7G0GOlbH9STJs1Z7gCQxUSV199dVIhMX369OjSSy+NLrnkkiTUfvnllyeVFLoDQxUVqpjQp0LjqRLDKjI0LU1Tw6pd3TV+PE2utm5j6cdKPbNxftc+VgrZ0Eu+0xUZD6/po6ITAJpAFRiqyOjtzy/vGcg/bWVlP5J+hWGmqqLEjV4W3R2SmtZQPV8y7Vc2hCokagl/+m629dU3vzf5jgbyg6ntOKjvwg0BAAAANM9Y77FS//CHl6L3PtE19ahWuiLDolsqNLTnTP/BT0ZUZFw288CdGLrDQndQ6PFRdieFKinSd1woVDGhUOWFVVhoOHvUlFWIpCs3NN7ll1++0u3aaFM8VgpZ4rFSANB+9BijpFIieQ/DgTsCAqH3fehF05Ps/Qxxt/XeMMPDZn0ngV/ZEKqQqCX86bvZZqpwJ0vy7pTUy+Jza+pZCQQAAABUxX+s1E+e+0O0Yct70avvvt/Q2Lp9Z8fEmXf/MJ00jYhOrtDQPTz+Y6XOmXVDcleFvRNDYXdYqFIi/e4LdUvfgaFuNozabRqqBLGKELVrOFVsqOLjiiuu4GrrNvbYC1NWpE8681gp1IrHSgFAB9MdBHp3g15OrpeUF6/E8CK3S3ceuKnUxK9sCFVI1BL+9N1sa6KXv7sKoAMvfe/PP9RN7zoBAABAG5pw5/2Tj77lzjuPmLtoZRbx1VkLfj1h5vXR+Blzo5OunROdcPV10ddmzIuOvvb66Khr5kZfvXpOEmq2UD/FMTNviMblboyOzd8UnTD75uikubdG469fmHyeOOeW6LhZ85Nh/GkpvnLV7OjLV14XHXnFrCTUrGE07/T0JsxblMTJNyxO4pQblxQNG0bhj6cYF8ex8XAKNVv835df7yVLB4eG0XjH3XTb8DRCYdM8Jp634mvx9lAcHa/LUfE2UXw1XrevXLfgoFB39dewCptGellD01WkK7eqjVNuXhr1Xz0juuyyyw56jJRC7fY4Kd1NkbqrYngchZrToWF0J4YqOKySRJ9x++prrrmGq63bWPpuDD1WKoo2x8FjpVAdHisFAN1JJ+VD5e/ikVvmRq2KX9kQqpCoJfzpu9lWbExf/vAR6633lvTNpuwMAACA7jR9+vRVOkl90UUXRVOnTo0mT54cnXfeedGZZ54Zff3rX49OOeWU4Tj55JOHQ/003MUXX5yc0NbV9vPnz0/i+uuvT6681wnuadOmRZMmTYrOOOOMZJzjjz8+Ovroo6Mvf/nL0Ve/+tVo3LhxyfTUX/PXOBr3pptuihYsWBDdeuutSdxyyy1J3HzzzUl39b/xxhuTTxvW5q/QcAsXLoxuu+226Pbbb4/uvPPOJO64445o6dKlw6H+/5+r56USo9KhYb/1rW8Nh8bXfLQMN9xQuJtBdxpom2p9LrzwwhFxwQUXRN/85jejc889N4nzzz8/6a7tqJP+Glcn/HWyX49xSt/JoO7uLoZkO2m7q90e3WR3OaifVSioWd3sDgqFppN+xJNVSFj409XwCjVrPOtnzenp+KHpaTlUCWJhyxY38/zeNqaXfKcrMj7Y/rsoirYVzkgDVXhm48LhSgwFj5UCgO6gxyX5ZW69qFp3beh9D/U4ee9XNoQqJGoJf/putgAAAACqcf755//XyZMnb1LlhSobdGJdFRinn356Urlw0kknRSeeeGJS+XDccccllQ6qhDjqqKOSZnX7xje+kYynk/Y6ea8T13YyXZUYU6ZMSSo8VFFx2mmnJcNr+meddVbSXf11El/j6SS7TtxbBYVVTqiCYN68edHcuXOHT+zrU+0aVpUWquRYtGhRMPzKEIUqH9Rv8eLFSWVEKCyRsmlYRYo/vj7VTcurZVVFjio0dCJ/YGAgqaw4++yzk/VWZY5i4sSJyTZXf20vDa/KCoWarVLCKgPUrIoDhVUwpCsSNIzCKjj8UD9VHqQrOPz+Fpqmpq/KC3tclM07PX8/rMJD41jFiY2vadqyat6KS3nJd1vjsVLIGo+VAoDuNaYvf7hrbBi/siFUIVFL+NN3swUAAABQqUmTJq1QJYROquuOC1VMqKJCd0ooVGFxzDHHDMfXvva1JE444YThk/GqBNFV9jphrZPwqmRQqF0nzfv6+pI7EDSsKi/s5L1VXmg43XmgigpVWqhSQJUIunNCobseVImgig1VEGg4NWtYVRworHJCoWE1jSVLliTT0V0XuiND01q2bFn07W9/e0TcfffdSfe77roruWPD7tJQBYXCKjM0XVViWMWK1lUn9dN3G2h9/UoAhdo1rLrp5H56O9ljltLDaRpWqWCVDzYPhT3qSRHqruZ0hUV6Guqvu29UyaRPhQ2fHiY97fQ4+u76+/uHQ+3padg8rdmmq2ZVYmgdta7xtlgdj0NFRhs7+LFSesk3j5VCdfRYKdufFDxWCgDQCH5lQ6hCopbwp+9mCwAAAKASp59++ibdIXHqqacmlROqyFCoecKECUl3he7MUDfF+PHjkzsr9DgknWjXnRE6ua87FBS6Q0In59VPJ7nPOeecZHjdjaC7PVRxohPgOtmtE/qqmFAFgSoK7K4HTU+VFYr0HRBWuaBKCoXdDaF+GkbDFgubvi2njWPh97dl0bhWmaF1U2WKKl6s8sHuNLA7FVRZYRUSFhrOf1SUmrX+qtjQ8HanQrrSIV2RoG7qr+1q81Sk73CwSgSrBLGwaaYrJBSqTFJ3TcPWwULLZMuladg81Gz9ta62vuqeXuZ0xYVC46SXO+7GSco29tt1/WOf/ONF/2onnf/5pauj//P6/GjNW0s6Kv7wzl0dGRve/25TY+PWH4+IF9/5bvTUS7NGVGTwWCkAQKP4lQ2hColawp++my0AAACAcpx66qnjVJGhSgbdXaGKC3uUlCos7PPYY49N7sawuzR0x4ba///tnb2rbddah2+hIvaWFoKFcO0EIUFCYlCREAiXFHJAEhJbO1FCICeQNBYGcvJ1k6CxshX8B5LmdorgX3Cs7KxsrOJ8tuu5981wrr3XWSv3Zu3wPPBjzjnm+Jx771O8v/OOwTvaYVSQcUFmBuIe04L+zPDwPAz6YgwyMzBCCHQT1MccWLMseMY4cKsmDA9FOXUxGTAdNDjc6gmTg0wOsivIxCDTgqyLmZFhJgbvyNjwzIwp+qAvTA3NDLazwoBYsyhmcN9tolgb9bmupoXCANBE4J19KMo1IzAeMCI0IDQVEH3MPu2X/jRRpnmyN4YGCoYH41FGf5oPzpF1H7Iqbsqog8lBe40R3vEdEPe0d4zDOAUpIyIiIuIqWM2GPUPiEq39H4aNiIiIiIi7eOqpp77QnHj66ae/YVK4jZTvEWUYEWxBxXkXbBWlMC7I3CBbQ/ODbalmv5Rx7gbGB9kABLsJqmNIYBRMM2JmS2hUsN3TPGCbemZNcHU7KetoQGB2mOGh+UFd+sDA0MRwOymzMKiL5vZVmhn0hTlBMF8jgQA/BgHlivUZxDejQbF+29peg2AaBd5jRijf0QbRXqNB8azBMKXJwT1mhYbFbE+fzllzA3FPXeowPutV63y5n/OY425q7/uIiIiIuCpWs2HPkLhEa/+HYSMiIiIi4jaeeeaZx/M8DIT5gHzWiOBgbwwKsikwK8zW4NkyMjAwKhTPCOODLaXmwd4Et8kOcFspTQjNDA0KTQWEmTCNBcpmHcwFszfmWRqaEKt54Rkcq5ExTRTFfOiHPjUzCPYToGctBO4J5rNtlAeTsz5NB80Ggvsz2K9hYD+Isj1DYJoKZEwovify/ArPH1lNB/vk6nyQ944/TQflu7U+da2PIcKYaM3mmPW4bn20rVREREREXB2r2bBnSFyitf/DsBERERERscfzzz//LEYE2u5vNJ/ZEgrzgqwMjA2uZGRQhjxHAwMDo4ItpsjKIFODbaNefvnlm7MwONj7wYMHN1tOYWKwnZSBdgLaBP/ZeslsidVAmGaFzxoZGhQYD5gUSCMEYUyQmYFZwUHebCX16NGjG60HfLv9lOYGbTFW6J95ucUVV6SZgWGBeTG3T0IE7M14MLg/sxp4Nw0C7q0zTQnOEuEew4L3GgGIdhgKjDszI8gCQc5J00EjBE0DZJoiiK2r5uHdiHXQ3nGRhsvsn/bM1+2vKLM+9RB9bH23rVREREREXCWr2bBnSFyitf/DsBERERERsfLcc899iRFBNoWZFBgSyqwKMy24Kt57cLemBdtFkXHhWRkYFgThCYITuCYTwOA6wXYzA7gncwGTAGMCAwLzgSwJzQSMCjIi0DQtNC6og3g2m0IDxPr2afaF518wBu/NAJkmyRTzw3DxoG6umhmegWEGBmtibQT6CeDP4D+BfA0AMy4Qbfg2fCP74dnvpAlgW66WKcut4/Os71xmHd/zzvf259ycB+8wNabhoemh2aFhQhmaJsmh7B8Ov4YREREREVfJajbsGRKXaO3/MGxEXC+/uuk/NvH3eor+e9OvbwLb/s+m36PgO+Ja5vGL5K41/9Km7+I/Wp4zr9/c9F+b5u/WfeIPNv3LJv9G/nWT6/iufg4RcR946aWXHnO2hQd1ky3x6quv/jQwjQlBGe85DHyaG5yFgYlBxgVtX3nllZu2eyJ4TVB7zSRYRZCcgDmGgFtCYSxgMGA0YFSYYcFV8bwKk8IMC8Wz5gXXuZ0UZgfGh5kXZodMI8N3bFmFcaGe/Yu/uhHmwzRqWA9mAGtjzawfEexHBPRnRgRl8xtZn/b0g9EwRZn9O4YmgmPYl/2t732e9db3lK1zcFzngFjvbaKd89zm0rZSEREREXH1rGbDniFxidb+D8NGxPXyfTACMjN+BsHzf97Ev79/SsGVcNu87rOZ8bebWNO/b/ohBQeu9ecQEdfACy+88OyLL754k1VBRgWGBNkUbAOFMcFWUJgYbmtE0N0AN6YEwXcNj9WomIH1GYxHBLP5n/0E+z0MW1FGwNsgufUxBzAPMBEwFDAcEAaHW0iZkYF4NoPDbAzMCs0NhImBoUF969I3BsbUNDF4xmAxK0Mjg3uyJwzUs96ZjcA9387vwHdRfp+1bH5rxDf2m2t82PeU5sNen8hvqrnAt6Y+benPcbjOMagz+1OU70kjxH7VYZ5fbfe57BERERFxL1jNhj1D4hKt/R+GjYjrJTPjfpKZcR1oZrx98/QzMjMiYp8HDx58aQYGRgVB5zXIrelAdgGBeswGD9BmmyVEcJ8gv+aCWzppAMxyzAKzK9zKiToYFPSJzHbAHHALJ8o0Mhhzju/Ys28zNTAuzMDAsOA9dc2qcC08a1qYdUG588BIMcOCb+J3IQODOnPOzHfW1yzYy1ign9vMAHTM5NCUoF/nNA2gvfFoz895NSmQxsPe2PTn+LZfTRXKqW8b5zn7dV7b+1cPv4YREREREfeC1WzYMyQu0dr/YdiIuF4uMQKOtTU4TfncfmfVGgCG1zbt1Z36u02TJ13D72+in3/cxDztl+2Bfm0T/MamLzf5btXeWDOAfUzrmu8K5Ls22s6g+N6aj327ve8sfot/unn6Jr5Dt613vjtnXvMb/P2mvbrotnXIOT8DcA579dG6/mNrYg1vLGVqb73H6qI/23Tb38PeOp7072d+r/n7f6w8Is7lzTfffPaNN954bBAeaQwQxCeYP80JDICZ4YDMgjAjwsyHNTtibv2kwWCZ2zu5BRSHb7///vs34hBu3tEf42IyaJpwZZ6IOTN/TAWF6TJFpofbPVnmORRomiZo9jXr+Wyf9kOb2cc0MjQYptmg4WDAn3veYY7Q5zRBbMc975Htp1GgMCc0GqYopz5j0tbxpzQiqKec3xR1eYcB4hZkGGJczdBhPOT4lGOYHbJ7ysaIiIiIiHvHajbsGRKXaO3/MGxEXC8zWH6X1uDpMRNhBoZvCxwfCxAfC57Ofu8K7N/GDNLv/a/5u+YBe/8j37I9Y+AYM7B9qZkBMwh9akaA8571p1Hxk0176/I7zW9wzrzO/X3Z45yfges45Wewzu+czIy71jt/P/fWcex7nPv3A/Mb/O4m1/sk3zEijvHWW299gRkwDQFNgplJQRbFNCc0JDQhVmlKuHUTZauBobnhdW2HaKMR4rjvvffe1x988MHXH3/88dc//vGPv/70009vxDPlmB+YIfTHfJn3zA7RlEGsFQNkZlFw5RkTwi2uDO4TvMc80EyYJgbtNIDMzNgzMqamcTBNA6UpsZZTn3bOR4ODsRgTo0UzxnU4/mxre67TKPHeOlO0ZQ5caeu4iG9ie66IOo7BlXfMZ9NX231GRkRERETcS1azYc+QuERr/4dhI+J6eVIjYHKsrUHTJw3Qr/zWpj/Z9Oeb+B/7BmLXdk+6BoPFe0HfObdTNNd4rC0ZIC9t2uPcb3VszeeYGfY15zAzNvbmYNn6Dc+Z17f1+wKz7tSxn8Gpffs91jleYmYcW6/vj/0+nzrnU/9+ZJood/UdEafy7rvvPtaMwCAwE8Lro0ePbsyBDz/88EaaBJoMqykxsyroD3lPn/RHH4gy6mp0IJ5tRx3G/Oijj/7f+IyFSaF4pi1jMF/a2I5nxlVkeCDqM6bzZz2KZzJLMDumMWG2BeYAQXuC8poCGhszKwNDgTID+tTdMy00FzQJyHAwkwFpZsx6x0QdDRBkm7VcORbZEnObKd45P+s6B9bL2lmz5gVlvHM8zQy/0VwXY73++usd8h0RERER95rVbNgzJC7R2v9h2Ii4Xo4Fn0/hWNtzg9NrMPUnmz7d9Neb/nDT72wyIDvbPekaTjUzLg3m/vamv9y0brU1A9/XYGbANC/sY/a9/q//vWwOOGde36aZsXLXz+DUvu+DmXHu34+4FlVWRsQlPHz48Nm33377MdkKZl+scmsp7gnsa1ZgJmgIaFZMQ2JKc4D3GhoYEhoMPCvKKdO4WKVBgT755JObjAyuZmNMk8MMEuc8pdmCmBPrcA5767JPt9Tim7m1FSaHmReK57ld18z4MENiZjBocmgaTDOBcrMZuCrKbXObNBcQz/S7apoW9K0JoVHB2LQfJsSNuHeuiPu5dRTimXLn4nq2srIxIiIiIuLes5oNe4bEJVr7PwwbEdfLseDzKRxre05w+pSg8gy2zjpPuobbzAyYW+78kIId1uD+DF7vbR0Ee+PeFbh2HHTKms81M2AG5rnOYPbslwD5+l7Omde3ZWac+zOYP++7xl/7vRYz45RvdOzvZ851mlk8H/sbiYjbeOedd75wiyVNC7eZmuIddQjea3pobliOaYBZYSYFpgLinjLMAEwNrpgD0zjQMEAYDNNksC59aWZofsz6ah1Hk2KaE8r202zRcFGrETPLMTeUmSGYHJgdfBO/Ld+KA8PJzsAc0BAg+2GaCAT4zXJguyrP39BMoK3SaJjPmhuaFtM0sFyzYjUVEM/Mx3MsXnvttRt51oXz3euDqwYM7TU4rLP2v/X71eHXMCIiIiLi3rOaDXuGxCVa+z8MGxHXy7Hg8ykca3tucHr9n+Wr3t20F6x+0jXcZWaAa5jjr7otgH1Me2NOw2LV32za+1a3rfnc/2E/fy57/c6fz10/2yeZ17dlZsC5P4O7ft7HfreOmRlw7np9f2zMY9/jnL+f2de6Bud/bJ4RscfDhw8fryaFAXhNDQ/RJhDPlTLrG7CnD0U72yqeeUddDA/Pu5iBfzTP4NAgsO4sw3zQCNEw0dzQuOCeMg0QszjI3EAzs8MyMzuob18aJKsBonhHXaRRgtHBWqah4bfhe/Adzc5w6ykzNGaWxp5RgVmAGaCxME0DyjELyJ5QmAwaDUgDgn5mFsYso58py33nWLTRpHCs2d561qUO62CN23rbVioiIiIivlesZsOeIXGJ1v4Pw0ZEREREfH95+H/bSv00sI5R4UHfBN41HDAOyEbg6tZKvKeeJgfXKY0L6ikC+gb1ke8xMhiHMdbsBzMq1q2m9swJTAj02Wefff3555/fXDkAnPeaHbabV/qemRrcOx5t2bpqHiiO3M6K99SbchyNFdbAulgj387vPbeYwrggwI8RQMCfwL9GhVkQmAJ7sg73mAj0MbM1uJ/GBsJ40NzQxOCeMt7RhjkdDIdvzNHMCtpMY2PO17nMfpVttzptKxURERER3ztWs2HPkLhEa/+HYSMiIiIiIiIiIiIiIk5jNRv2DIlLtPZ/GDYiIiIiIiIiIiIiIuI0VrNhz5C4RGv/h2EjIiIiIiIiIiIiIiJOYzUb9gyJS7T2fxg2IiIiIiIiIiIiIiLiNFazYc+QuERr/4dhIyIiIiIiIiIiIiIiTmM1G/YMiUu09n8YNiIiIiIiIiIiIiIi4jRWs2HPkLhEa/+HYSMiIiIiIiIiIiIiIk5jNRt+3joMGxERERERERERERERcRq/8sc/+rc90+HnoV/+ox/952HYiIiIiIiIiIiIiIiIiIiIiIj4xfGDH/wvxwbqYXF65rMAAAAASUVORK5CYII=;" vertex="1" parent="1">
          <mxGeometry x="2420" y="1140" width="1587" height="386" as="geometry" />
        </mxCell>
        <mxCell id="ckXVGLJdIZm9-5gjYWTS-30" value="" style="shape=image;verticalLabelPosition=bottom;labelBackgroundColor=default;verticalAlign=top;aspect=fixed;imageAspect=0;image=data:image/png,iVBORw0KGgoAAAANSUhEUgAAAogAAABHCAMAAAHEsXZWAAAAAXNSR0IArs4c6QAAAARnQU1BAACxjwv8YQUAAABjUExURQAAAAAAAAAAAAAAAAAAAAAAAAAAAAAAAAAAAAAAAAAAAAAAAAAAAAAAAAAAAAAAAAAAAAAAAAAAAAAAAAAAAAAAAAAAAAAAAAAAAAAAAAAAAAAAAAAAAAAAAAAAAAAAAAAAAGZodN4AAAAgdFJOUwAIEBggKDA4QEhQWGBocHiAh4+Xn6evt7/Hz9ff5+/3v+H4wgAAAAlwSFlzAAAXEQAAFxEByibzPwAABTdJREFUeF7tnQlz4joQhGXsEBMuQTgMwXj+/6/c7pFwHNjN5lVeFdmivyQwulKuqdaFNSY8LPbC17XbVWjMjW9hZs0hVEVomAiblPsdcFHW4epgmIXjKGcL8XUoomx+F0g7bsPYGqgxlDnze+A/4X9169Nb7ZYQ9yTGIluw/TcRYY04sN8fC/swK3Z4n4SKnQY/pdVh8cTSH3GNFqb4S1bFPv7spr/McokQQgjx3+BcnIE1ySayOWGnHd29waSXLc5+aStYpymwC2Hu6TvDS+TPvOReeONLikUdbOmX+SPm6OqI9Qy25n49tgnWNBFe9NRPuURcBhc3cKCFcusX5Zd4pOmfMdybCmvCtZ2Ctbwk/vqb2TiZQgghhBBCiG9jh+Zk2MBcYbbC62aw7h67jeoNP7ut7C0a9oiCWMUX/L0Yti8hjMysZLbtshNTwQH5SHl1YLxVii2PIPQNnWf+Kfxz8g4s7F2P7sRLQZ2U2KB+EZ48MRTqQ0NpsTv3/ihbHiFgdte6E3N+ciJZX3LfpMRE6s4LqKoIYea/9I1nt+zAl4KSH05sJyEsqM0DFLvr3SqEEEIIIYQQQgghhBBCiH+IKsY4zfaAMnqo2SAwJzFG9bikNWkaj30RvIPSNLx9d8UmnfT0Oy0Zj4BtUL3ZwzjbemP9WeoHx+962ltKvAMn8nj5ByfO8HKJHi75/qobVQl34plHGU5mC7ytLd21f3Hv0ompgPenV70TD/4uJyboxMKdtA0jvM+QhgaRbYfkxFxQ26oewYn5gLyHAeYb/Q8P+q0Ljc4Lc/Mb857tZ2/gxEtB6s7L09F4eMQ8bsPcoQLemrD/7jrMGEf6yicQCpSRBdWggE4kEwgwK/H/iRb/56G3qLmG53GcmI49cPIo4MS+oHcirbMfIEElAegtDnvLgUMgMM/uWjixL2CnT0CJkbne00V2op9QwihXLAMWOyOkPLswn1hSAc/RlQEdv/C53Pao9zOC7O6Pe4sn53gu0abszDa/ZO856OUCdHoscd5g+3DI3FcaQgghhBBCCCGEEEIIIYQQQgghhBBCCCGEEEIIIT5hxTPZzutNnOQtrH261Nv4yfhP2aV/TXLV5zYlO4VXiiEXNc3Pxq/d+Quo3VmXA6n+JMTa+sCh5rrK3sy/OWli1n5B+OJh6NU0gsbcAEVdD6P26rrO4aSo/dRaN74kepUNW3wixEWKHASotEuWEKBXU2U5/H6NifPIwKmdD1kH5Dd4cW157aN/kdWg6YcWfJa5w5C1ayEOns+P+tkSwtU0retJPJltKbyiTZF7AXrj5PnqT9S/kLSH+TVFRLvKrltcjYjOeemixqjbD4NYPn7QqHhsoKbEyqWC0a1LBpdxUwY02/FdMFl7EJGHoXriusVQiIlRxAKU8agYdbcpy1unGV4IcBnWMFP66o0zbA9zilUH65Q2ubk2xknj1z144qbFjRABBlE+cMP4eJMEcrIlxLu0uBakVCCxPL4NKJb+CJdBbSwLFzlx0+J3QkRdShnLy9Q+jDptVsSAXlpY6vFzmfHvd7Mr8+cw9bUDpImRkombFk+WHjo04CXvhFB0cNViBD7fCl48Lu/SgkgolrLF3qJZ77DP4CBo1jZxjzWeT9zvtcOcM7Enrlqkj7EPLcTIvUrDZwr6mpJUnMiP/Mq1o3QoBlR1/7C0sq6TOMp6EeM8P59z9BLjMhcMa2MKrvtHeH5ogfFuEuPUm4xnMcb6w66kRk3//nUhhBBCCCGEEEIIIYQQQgghhBBCCCGEEF8lhF8o0XAYQKnGJgAAAABJRU5ErkJggg==;" vertex="1" parent="1">
          <mxGeometry x="2440" y="1540" width="556.73" height="61" as="geometry" />
        </mxCell>
      </root>
    </mxGraphModel>
  </diagram>
</mxfile>
